<svg width="1127" height="1126" viewBox="0 0 1127 1126" fill="none" xmlns="http://www.w3.org/2000/svg">
<path d="M863.032 753.136C857.472 728.666 841.736 708.095 827.446 687.452C806.73 657.596 788.366 626.175 772.517 593.47C765.15 578.095 757.935 562.072 745.3 550.596C711.088 525.693 667.854 515.444 629.814 497.182C576.112 472.929 498.299 447.81 456.361 503.822C430.448 533.633 469.137 568.206 490.936 589.142C495.411 593.544 538.792 640.605 538.792 640.605C559.653 602.424 600.29 597.297 631.041 627.249C643.53 638.005 654.712 650.493 669.008 658.721L658.106 664.135C691.671 721.451 746.094 796.303 704.74 861.84C662.513 900.313 610.758 872.742 576.546 837.01L578.707 945.934C589.681 981.3 657.819 981.086 685.897 980.219C706.901 979.353 728.484 980.726 748.914 975.239C789.187 961.523 839.428 923.99 857.185 884.797C860.286 875.916 860.865 866.388 861.445 857.006C862.165 822.574 869.166 787.281 863.032 753.136Z" fill="#EFDCC4"/>
<path d="M537.566 593.904C546.444 591.45 557.777 591.09 566.224 592.243C581.161 594.337 593.796 599.965 605.705 609.352C614.586 616.354 625.774 626.602 637.536 631.437C650.965 637.357 665.541 639.018 677.09 647.825L676.949 647.679C678.03 648.546 679.043 649.486 680.05 650.42C683.298 653.74 688.498 648.619 685.177 645.372C667.348 628.623 641.076 630.502 623.388 614.406C610.038 603.072 592.642 589.356 573.513 586.182C567.378 584.522 531.358 581.708 533.163 591.377C533.432 592.283 534.04 593.054 534.859 593.521C535.678 593.994 536.648 594.129 537.566 593.904Z" fill="white"/>
<path d="M802.616 806.264C782.259 810.232 759.669 821.634 761.109 845.598C761.036 853.466 762.196 861.334 761.256 869.134C761.256 868.408 761.329 868.701 761.256 868.988C761.036 871.728 759.089 877.722 758.656 878.656C757.057 882.427 754.969 885.973 752.448 889.198C751.367 890.931 744.293 897.932 742.346 899.232C737.32 902.952 731.895 906.098 726.177 908.614C706.974 917.709 674.349 914.608 667.274 939.146C665.254 949.828 676.802 950.12 674.349 941.96C674.202 941.673 674.422 939.005 674.275 940.373C674.782 936.912 677.669 933.878 679.977 931.931C693.045 922.69 710.368 922.403 725.743 916.482C744.366 909.481 761.83 895.405 767.244 875.702C770.497 864.587 767.39 850.145 768.617 840.403C768.961 838.09 769.54 835.816 770.351 833.616C771.133 831.742 772.152 829.969 773.384 828.348C775.185 825.314 783.773 819.687 787.46 818.46C793.026 816.293 798.744 814.531 804.563 813.192C809.037 812.038 807.09 805.037 802.616 806.264Z" fill="white"/>
<path d="M867.506 770.893C855.305 726.358 819.939 692.939 798.935 652.587C797.01 654.151 794.934 655.502 792.727 656.628C794.951 659.233 796.774 662.149 798.142 665.295C848.957 747.002 872.56 752.776 859.785 857.006C858.625 871.009 859.132 885.298 855.598 898.94C840.509 938.933 780.453 983.9 739.025 992.201C692.392 994.869 623.247 1004.83 586.361 971.412C582.174 966.431 583.187 959.649 583.04 953.222C582.32 919.972 581.622 886.671 580.947 853.325C669.295 927.165 748.987 862.994 714.915 758.477C695.212 696.547 598.703 562.65 539.009 653.24C530.564 645.152 521.325 636.131 513.096 628.19C508.765 624.002 468.199 579.902 458.454 559.691C450.659 546.698 452.463 537.459 459.537 525.044C510.353 458.637 601.157 507.576 660.56 531.684C661.083 529.323 662.198 527.136 663.813 525.333C663.014 524.914 662.164 524.599 661.286 524.394C601.084 499.564 521.685 457.194 464.085 508.803C417.456 549.297 483.646 613.32 512.662 637.791C519.953 643.925 526.377 651.073 533.234 657.714C535.689 660.095 539.803 665.222 542.763 660.747C607.438 552.256 742.413 764.251 711.668 833.982C695.572 894.612 630.968 883.784 591.629 852.312C586.935 849.786 583.761 844.445 578.206 844.011C575.966 843.651 573.585 844.951 573.658 847.478C581.526 950.554 541.896 1004.26 680.269 1002.24C748.914 1003.68 777.712 994.368 829.107 947.301C848.957 929.545 866.353 906.881 865.7 879.023C866.493 843.077 873.787 806.551 867.506 770.893Z" fill="#452D34"/>
<path d="M564.271 564.745C555.105 554.926 456.867 513.061 547.815 521.579C589.394 525.549 633.855 526.053 665.541 553.266C677.089 563.225 686.618 575.28 697.592 585.962C710.801 598.738 726.103 609.493 737.866 623.715C749.612 638.066 757.176 655.372 759.742 673.736C760.896 681.891 760.896 690.626 757.069 697.919C749.274 712.496 727.764 715.316 713.542 706.795C699.326 698.28 691.458 682.037 687.844 665.868C686.331 659.373 687.777 652.08 682.577 647.898C682.577 647.898 628.728 633.749 564.271 564.745Z" fill="#452D34"/>
<path d="M909.947 331.669C948.279 379.02 973.47 410.924 995.627 441.674C902.225 526.054 757.356 672.509 757.356 672.509C743.64 690.412 717.296 689.185 708.055 674.817L697.373 639.738C696.073 635.432 693.799 631.487 690.737 628.195C687.67 624.902 683.894 622.358 679.69 620.754C656.159 611.733 610.038 591.523 612.925 573.114C613.358 570.3 610.179 568.206 612.199 566.186C681.496 495.665 743.86 435.177 816.765 367.833L909.947 331.669Z" fill="#D13535"/>
<path d="M992.887 462.173C972.89 434.383 951.74 407.46 930.303 380.753L906.7 351.447C906.255 350.959 905.681 350.608 905.039 350.437C904.426 350.245 903.762 350.271 903.165 350.509C872.127 362.563 841.016 374.473 809.977 386.6C797.562 396.561 786.447 408.399 774.465 419.081C716.817 473.121 660.273 528.388 604.838 584.882C603.481 585.906 602.558 587.403 602.266 589.08C601.973 590.757 602.322 592.48 603.251 593.903C602.457 608.773 616.533 618.374 627.935 625.302C637.519 631.048 647.509 636.085 657.819 640.391C667.061 644.792 678.536 646.671 684.597 655.766C692.178 669.335 693.478 685.718 699.686 699.794C712.608 717.477 741.766 714.156 754.035 697.34L752.448 698.28C831.775 620.681 909.874 541.067 992.307 466.504C992.864 465.945 993.224 465.219 993.326 464.436C993.432 463.654 993.275 462.859 992.887 462.173ZM611.405 600.764C611.073 599.892 610.809 598.997 610.612 598.091V597.944C610.578 597.275 610.606 596.594 610.685 595.924C611.118 594.123 610.179 591.883 609.531 590.442C675.649 523.022 743.449 457.265 812.938 393.168L893.564 361.914C894.864 361.048 896.885 360.47 898.978 359.82C811.564 442.757 724.517 526.126 641.723 613.68L635.589 620.248C635.257 620.558 634.987 620.923 634.795 621.334C625.408 616.134 616.82 609.786 611.405 600.764ZM748.987 692.286L750.574 691.346C745.087 695.967 740.252 701.887 732.671 703.401C723.07 706.508 710.582 702.681 705.674 696.113C701.633 683.338 698.24 670.202 693.765 657.567C687.845 642.124 670.955 638.37 657.386 632.303C652.191 629.849 646.704 627.396 641.29 624.728C726.464 534.21 816.258 448.242 906.413 362.708H906.486C933.264 395.839 959.969 429.042 984.945 463.545C904.032 537.386 826.293 614.693 748.987 692.286Z" fill="#452D34"/>
<path d="M831.847 516.815C831.706 516.815 831.56 516.815 831.56 516.887H831.847V516.815Z" fill="#CE9C5C"/>
<path d="M859.566 374.618C869.24 342.569 755.336 467.732 750.355 473.506C757.936 441.457 771.358 346.9 729.351 351.448C711.522 354.984 701.707 367.977 697.373 384.218C649.372 344.013 573.225 392.302 626.134 444.995C653.779 472.64 695.786 479.858 730.072 493.428C724.517 496.388 588.595 627.109 622.74 615.34C657.195 572.939 695.178 533.532 736.279 497.542L736.639 497.975C736.932 531.54 761.403 557.958 781.753 582.209C788.445 589.958 795.373 597.489 802.543 604.805C803.235 605.39 804.13 605.694 805.036 605.655C805.942 605.61 806.803 605.227 807.439 604.58C808.081 603.933 808.452 603.066 808.481 602.16C808.509 601.254 808.194 600.364 807.597 599.678C783.847 573.046 755.195 546.842 745.374 511.473C782.046 538.324 802.83 581.995 841.162 606.898C841.995 607.371 842.986 607.506 843.914 607.264C844.849 607.022 845.642 606.42 846.143 605.598C848.377 600.038 839.716 598.305 836.829 594.99H836.975C804.057 569.219 783.774 530.457 749.781 505.843C748.785 503.535 747.603 501.313 746.241 499.203C746.888 498.828 747.406 498.273 747.743 497.606C748.076 496.939 748.205 496.189 748.12 495.449C755.623 488.159 767.464 492.201 775.979 495.449L776.846 495.81C795.035 502.595 806.511 522.734 826.794 524.105C834.955 524.682 843.323 521.795 847.944 514.794C850.398 508.875 842.603 508.009 841.449 511.545C839.142 514.505 836.181 516.093 831.848 516.742C832.135 516.742 831.775 516.815 831.561 516.815C829.788 517.032 827.993 517.032 826.22 516.815C825.927 516.815 824.56 516.598 825.713 516.815C823.417 516.469 821.16 515.864 818.999 515.01C818.999 515.029 819.01 515.048 819.022 515.061C819.033 515.075 819.056 515.083 819.072 515.083C807.738 510.03 799.656 500.069 788.974 493.933C777.133 487.293 762.196 480.941 748.695 486.282C783.076 446.588 820.119 409.281 859.566 374.618ZM807.67 508.081C807.811 508.153 808.103 508.442 807.67 508.081V508.081ZM756.202 491.696H755.842C755.988 491.696 756.129 491.624 756.202 491.696ZM702.573 397.21C726.824 418.071 731.518 453.728 738.733 485.921L738.592 486.065C712.028 458.42 699.253 436.477 702.573 397.21ZM717.876 363.935C721.337 361.048 726.971 358.882 729.498 358.665H729.998C764.357 356.861 748.408 450.624 743.28 472.134C736.279 439.003 728.845 409.192 703.727 388.982C706.034 378.66 710.948 369.06 717.876 363.935ZM639.844 447.448C612.852 427.021 602.671 396.561 638.549 379.237C659.193 370.287 679.043 380.681 695.713 392.374C692.325 422.546 698.532 452.213 717.442 472.423C713.689 471.702 711.741 477.259 715.129 479.064C716.863 480.002 718.523 481.013 720.183 482.095C691.312 471.99 663.74 465.566 639.844 447.448Z" fill="#CE9C5C"/>
<path d="M910.307 708.889C899.918 708.962 898.472 698.061 897.318 690.193L891.324 697.7C882.663 708.602 865.486 696.62 872.633 684.711C856.532 687.232 850.544 662.115 876.022 660.888C867.94 656.847 858.918 651.219 864.332 640.965C869.741 630.716 880.428 636.564 888.004 641.471C885.842 632.663 883.676 621.621 895.297 618.954C906.919 616.28 909.153 628.409 910.454 637.357C913.847 633.457 918.034 625.882 924.023 625.735C933.838 624.362 940.625 636.637 934.204 644.145L928.863 650.786C936.798 648.332 946.76 648.759 948.712 658.58C949.258 661.434 948.701 664.388 947.142 666.842C945.589 669.302 943.152 671.069 940.338 671.789C951.667 680.09 940.045 697.847 927.85 690.772L919.695 686.079C922.289 695.894 923.736 707.808 910.307 708.889ZM898.978 680.665C904.679 680.738 902.152 699.94 907.133 702.102C912.114 704.268 916.875 701.167 915.868 696.4C916.014 694.166 911.033 679.438 914.061 678.138C914.511 677.817 915.04 677.625 915.592 677.603C916.143 677.575 916.695 677.71 917.168 677.997L930.737 685.865C932.042 686.58 933.579 686.76 935.02 686.371C936.46 685.983 937.693 685.049 938.458 683.771C941.706 678.284 934.778 674.89 930.883 672.87C928.643 671.643 929.223 667.962 931.817 667.602C936.151 666.882 944.452 666.156 943.079 659.661C940.698 648.833 923.516 661.608 919.334 656.56C919.03 656.048 918.89 655.457 918.929 654.866C918.969 654.275 919.182 653.706 919.548 653.239L929.724 640.605C934.344 634.903 925.396 627.756 920.848 633.53L911.033 645.805C910.684 646.221 910.228 646.536 909.716 646.705C909.198 646.88 908.647 646.902 908.118 646.773C907.594 646.649 907.111 646.373 906.733 645.985C906.356 645.597 906.092 645.107 905.979 644.578C904.099 639.811 905.113 622.702 896.378 624.582C894.909 624.88 893.615 625.741 892.782 626.985C891.943 628.229 891.628 629.748 891.904 631.223L894.791 646.598C895.37 648.906 892.624 650.853 890.604 649.626L877.035 641.758C870.754 638.004 864.979 647.966 871.333 651.579L885.55 659.734C886.051 660.032 886.45 660.471 886.692 661C886.94 661.529 887.019 662.12 886.923 662.694C886.855 663.28 886.602 663.826 886.197 664.253C885.792 664.681 885.263 664.968 884.683 665.075L869.167 668.035C861.946 669.262 864.04 680.591 871.26 679.151L879.055 677.637C881.582 677.057 883.529 680.304 881.869 682.252L878.042 687.019C873.354 692.646 882.376 699.867 886.85 694.093C888.296 692.939 896.738 680.017 898.978 680.665Z" fill="#D13535"/>
<path d="M811.491 213.004C801.029 213.004 799.802 202.393 798.502 194.309L792.508 201.816C783.847 212.715 766.67 200.66 773.885 188.823C757.789 191.35 751.728 166.23 777.206 165.003C769.197 160.961 760.102 155.331 765.516 145.081C772.011 134.904 781.466 140.678 789.188 145.586C787.026 136.78 784.86 125.736 796.482 123.066C808.103 120.395 810.411 132.521 811.638 141.472C815.104 137.574 819.218 129.923 825.207 129.851C834.954 128.407 841.809 140.823 835.388 148.257L830.114 154.898C838.055 152.444 847.944 152.805 849.897 162.694C851.124 168.396 847.223 174.531 841.522 175.902C852.851 184.203 841.23 201.96 829.034 194.886L820.952 190.195C823.473 200.011 824.92 211.921 811.491 213.004ZM800.162 184.781C800.832 184.787 801.485 185.029 801.997 185.464C802.515 185.899 802.858 186.5 802.976 187.163L805.936 202.609C806.73 207.446 813.512 208.889 816.185 204.775C818.785 202.177 814.165 188.246 814.091 185.142C813.996 184.602 814.052 184.046 814.26 183.538C814.463 183.03 814.812 182.591 815.256 182.273C815.707 181.955 816.236 181.771 816.782 181.742C817.328 181.713 817.873 181.841 818.352 182.11L831.921 189.906C838.202 193.659 843.976 183.698 837.549 180.161L832.067 176.985C829.827 175.758 830.474 172.077 833.001 171.644L839.789 170.417C844.55 169.623 846.07 162.766 841.882 160.167C838.489 155.98 816.765 167.962 820.732 157.352C822.246 154.609 833.221 144.143 832.067 140.534C831.707 135.625 824.993 133.749 822.106 137.646L812.217 149.917C811.868 150.337 811.413 150.65 810.9 150.822C810.383 150.994 809.831 151.017 809.302 150.889C808.779 150.761 808.295 150.486 807.918 150.098C807.54 149.709 807.276 149.221 807.163 148.69C805.357 143.926 806.297 126.747 797.562 128.696C796.099 128.976 794.804 129.824 793.966 131.056C793.127 132.287 792.812 133.8 793.088 135.264L796.048 150.711C795.035 162.694 775.979 137.069 770.497 147.969C770.12 148.612 769.878 149.323 769.782 150.061C769.687 150.799 769.737 151.548 769.929 152.267C770.126 152.985 770.458 153.657 770.914 154.245C771.369 154.833 771.938 155.325 772.585 155.692L786.734 163.848C789.047 165.075 788.394 168.757 785.867 169.19C783.34 169.623 768.184 171.066 766.743 174.531C763.856 178.501 767.678 184.276 772.444 183.193L780.239 181.749C780.819 181.638 781.415 181.706 781.956 181.945C782.49 182.183 782.946 182.579 783.25 183.082C783.554 183.585 783.7 184.169 783.667 184.756C783.633 185.343 783.419 185.906 783.053 186.369L779.226 191.133C774.611 196.763 783.56 203.981 788.034 198.207C789.548 197.052 797.922 184.131 800.162 184.781Z" fill="#EFDCC4"/>
<path d="M167.709 456.038C167.333 456.048 166.959 455.982 166.609 455.845C166.259 455.707 165.94 455.502 165.671 455.24C165.402 454.977 165.188 454.663 165.042 454.317C164.896 453.971 164.821 453.599 164.821 453.223V384.795C164.821 384.029 165.125 383.295 165.667 382.754C166.208 382.212 166.943 381.908 167.709 381.908C168.474 381.908 169.209 382.212 169.75 382.754C170.291 383.295 170.596 384.029 170.596 384.795V453.223C170.596 453.599 170.521 453.971 170.375 454.317C170.229 454.663 170.015 454.977 169.746 455.24C169.477 455.502 169.158 455.707 168.808 455.845C168.458 455.982 168.084 456.048 167.709 456.038Z" fill="#CE9C5C"/>
<path d="M143.239 451.275C142.579 451.282 141.938 451.052 141.434 450.625C140.855 450.134 140.492 449.434 140.424 448.678C140.357 447.922 140.59 447.169 141.074 446.583L189.94 388.26C190.453 387.769 191.13 387.484 191.84 387.46C192.55 387.436 193.244 387.675 193.789 388.13C194.335 388.586 194.692 389.227 194.794 389.93C194.897 390.633 194.736 391.35 194.343 391.942L145.476 450.264C145.192 450.576 144.847 450.826 144.462 451C144.077 451.174 143.661 451.267 143.239 451.275Z" fill="#CE9C5C"/>
<path d="M194.632 449.036C194.243 449.04 193.857 448.966 193.497 448.817C193.137 448.668 192.811 448.448 192.539 448.17L138.764 394.395C138.235 393.855 137.938 393.13 137.938 392.374C137.938 391.618 138.235 390.893 138.764 390.353C139.026 390.082 139.34 389.867 139.687 389.72C140.035 389.573 140.408 389.498 140.785 389.498C141.162 389.498 141.535 389.573 141.882 389.72C142.229 389.867 142.544 390.082 142.806 390.353L196.653 444.128C197.182 444.668 197.478 445.393 197.478 446.149C197.478 446.905 197.182 447.631 196.653 448.17C196.392 448.443 196.078 448.66 195.731 448.809C195.384 448.958 195.01 449.035 194.632 449.036Z" fill="#CE9C5C"/>
<path d="M201.922 421.896H133.495C132.729 421.896 131.995 421.592 131.453 421.051C130.911 420.509 130.607 419.775 130.607 419.009C130.607 418.243 130.911 417.509 131.453 416.967C131.995 416.426 132.729 416.122 133.495 416.122H201.922C202.688 416.122 203.423 416.426 203.964 416.967C204.506 417.509 204.81 418.243 204.81 419.009C204.81 419.775 204.506 420.509 203.964 421.051C203.423 421.592 202.688 421.896 201.922 421.896Z" fill="#CE9C5C"/>
<path d="M614.006 318.388C613.24 318.388 612.503 318.084 611.963 317.543C611.422 317.002 611.118 316.267 611.118 315.501V247.073C611.118 246.698 611.192 246.325 611.338 245.979C611.484 245.633 611.698 245.319 611.968 245.057C612.238 244.795 612.553 244.589 612.908 244.451C613.257 244.315 613.628 244.249 614.006 244.258C614.377 244.248 614.748 244.315 615.092 244.452C615.441 244.59 615.756 244.798 616.02 245.061C616.279 245.324 616.487 245.638 616.628 245.984C616.763 246.331 616.831 246.701 616.82 247.073V315.501C616.831 315.877 616.763 316.251 616.628 316.601C616.487 316.951 616.285 317.27 616.02 317.539C615.761 317.808 615.446 318.021 615.097 318.168C614.754 318.313 614.383 318.389 614.006 318.388Z" fill="#CE9C5C"/>
<path d="M589.535 313.552C588.854 313.547 588.196 313.319 587.661 312.902C587.081 312.411 586.715 311.712 586.648 310.955C586.58 310.198 586.817 309.446 587.301 308.86L636.236 250.537C636.737 249.954 637.446 249.591 638.211 249.531C638.971 249.47 639.731 249.715 640.316 250.213C640.902 250.711 641.262 251.42 641.324 252.185C641.386 252.95 641.138 253.707 640.643 254.291L591.702 312.541C591.432 312.851 591.1 313.101 590.723 313.275C590.351 313.449 589.946 313.543 589.535 313.552Z" fill="#CE9C5C"/>
<path d="M640.856 311.315C640.479 311.313 640.108 311.236 639.759 311.087C639.41 310.939 639.095 310.721 638.836 310.448L585.061 256.674C584.644 256.118 584.442 255.43 584.492 254.736C584.537 254.043 584.836 253.391 585.331 252.899C585.82 252.408 586.473 252.11 587.166 252.061C587.858 252.012 588.544 252.215 589.102 252.632L642.877 306.406C643.147 306.669 643.361 306.983 643.513 307.33C643.659 307.677 643.732 308.05 643.732 308.427C643.732 308.804 643.659 309.178 643.513 309.525C643.361 309.872 643.147 310.186 642.877 310.448C642.618 310.725 642.303 310.944 641.96 311.093C641.611 311.242 641.234 311.318 640.856 311.315Z" fill="#CE9C5C"/>
<path d="M648.145 284.174H579.793C579.028 284.174 578.29 283.87 577.75 283.328C577.21 282.787 576.906 282.053 576.906 281.287C576.906 280.521 577.21 279.787 577.75 279.245C578.29 278.704 579.028 278.399 579.793 278.399H648.145C648.91 278.399 649.648 278.704 650.188 279.245C650.728 279.787 651.032 280.521 651.032 281.287C651.032 282.053 650.728 282.787 650.188 283.328C649.648 283.87 648.91 284.174 648.145 284.174Z" fill="#CE9C5C"/>
<path d="M296.48 549.729C304.919 552.062 313.539 553.679 322.249 554.565C324.342 554.781 327.157 553.41 328.601 551.894C330.29 550.209 331.249 547.928 331.271 545.542C331.127 543.233 330.405 540.778 328.601 539.191L326.797 537.747C325.411 536.955 323.845 536.532 322.249 536.52L319.939 536.231L322.393 536.592C315.279 535.653 308.237 534.23 301.316 532.333C298.947 531.766 296.451 532.1 294.315 533.272C292.3 534.482 290.827 536.42 290.201 538.685C289.695 540.995 289.767 543.593 291.067 545.614C292.293 547.614 294.225 549.082 296.48 549.729Z" fill="#D13535"/>
<path d="M388.511 556.586C390.964 557.252 393.48 557.663 396.017 557.813C398.389 557.839 400.756 557.646 403.091 557.236C406.726 556.554 410.232 555.312 413.486 553.554C415.435 552.544 417.311 551.317 419.188 550.09C421.065 548.863 424.962 546.625 427.705 544.748C430.448 542.871 434.923 539.551 437.522 535.87C438.749 533.993 438.966 531.034 438.388 528.94C437.761 526.675 436.288 524.738 434.274 523.527C432.181 522.445 429.654 521.867 427.344 522.589C425.108 523.312 423.193 524.793 421.931 526.775L421.642 527.136L423.086 525.259C422.077 526.488 420.912 527.58 419.621 528.508L421.426 527.136C417.888 529.879 414.063 532.044 410.31 534.427C407.778 536.154 405.096 537.651 402.297 538.902L404.463 538.035C402.328 538.912 400.1 539.541 397.822 539.912L400.204 539.551C398.291 539.828 396.35 539.853 394.43 539.624L396.812 539.912C395.62 539.741 394.439 539.5 393.275 539.191C392.133 538.872 390.939 538.782 389.762 538.926C388.585 539.069 387.448 539.443 386.415 540.026C385.383 540.61 384.476 541.391 383.745 542.324C383.015 543.259 382.476 544.327 382.159 545.47C381.654 547.78 381.726 550.379 383.097 552.4C384.321 554.417 386.25 555.909 388.511 556.586Z" fill="#D13535"/>
<path d="M327.951 598.091C330.293 602.83 333.59 607.039 337.635 610.444C341.68 613.849 346.386 616.382 351.457 617.879C356.529 619.376 361.855 619.809 367.101 619.151C372.348 618.487 377.401 616.753 381.943 614.041C383.458 613.106 385.047 612.093 386.779 612.02C388.511 611.953 390.677 613.466 392.121 614.98C402.514 625.375 416.59 675.324 378.839 678.864C355.885 681.025 333.365 673.81 311.783 665.795C306.441 663.775 301.028 661.321 297.491 656.92C290.489 648.332 292.654 635.483 297.779 625.735C302.731 616.359 309.921 608.351 318.712 602.424C321.563 600.533 324.676 599.076 327.951 598.091Z" fill="#D13535"/>
<path d="M332.065 521.94C331.993 522.083 332.065 522.012 332.065 521.94V521.94Z" fill="#452D34"/>
<path d="M475.562 341.197C475.562 341.125 475.49 341.053 475.49 340.981C475.49 340.909 475.634 341.485 475.562 341.197Z" fill="#452D34"/>
<path d="M352.564 437.127C352.42 437.127 352.348 437.055 352.204 437.127H352.564Z" fill="#452D34"/>
<path d="M336.035 503.028L335.747 503.388C335.819 503.388 335.891 503.316 336.035 503.028Z" fill="#452D34"/>
<path d="M346.645 499.275H346.141C346.645 499.347 346.717 499.275 346.645 499.275Z" fill="#452D34"/>
<path d="M371.042 541.645C370.898 541.501 370.754 541.429 370.682 541.501L371.042 541.645Z" fill="#452D34"/>
<path d="M328.529 356.356C323.548 353.469 316.474 358.016 316.98 363.79C317.485 369.565 325.425 374.329 330.333 369.854C335.241 365.379 333.726 357.944 328.529 356.356Z" fill="#452D34"/>
<path d="M400.998 356.14C396.09 353.252 389.016 357.8 389.521 363.575C390.026 369.349 397.894 374.113 402.803 369.566C407.711 366.101 406.195 357.728 400.998 356.14Z" fill="#452D34"/>
<path d="M339.139 343.868V343.724C329.9 341.053 307.524 343.507 302.76 344.373C299.728 344.879 299.151 349.931 302.038 350.942C302.352 351.413 302.783 351.794 303.29 352.048C303.796 352.301 304.36 352.417 304.925 352.385C310.339 351.736 355.308 354.623 339.139 343.868Z" fill="#452D34"/>
<path d="M389.161 342.352H389.016C384.324 342.208 384.396 349.498 389.016 349.498C400.412 350.581 411.855 351.087 423.303 351.014C423.848 351.035 424.391 350.92 424.882 350.681C425.373 350.442 425.797 350.085 426.117 349.642C436.512 338.382 397.1 341.341 389.161 342.352Z" fill="#452D34"/>
<path d="M375.086 382.63C371.62 377.288 375.013 370.575 372.992 364.729C370.971 358.882 363.825 363.285 366.424 368.337C366.207 383.063 365.557 382.63 374.508 393.168C374.58 393.601 374.797 394.034 374.869 394.468C374.941 394.9 374.797 396.127 374.869 395.045C374.941 395.911 374.075 397.282 373.714 397.788L373.858 397.643C373.115 398.456 372.203 399.096 371.188 399.52C368.878 400.314 367.795 400.314 365.125 400.097C360.505 400.025 360.433 407.316 365.125 407.316C381.437 408.831 387.789 393.096 375.086 382.63Z" fill="#452D34"/>
<path d="M265.37 351.808C266.019 343.651 258.945 342.497 257.863 348.344C258.585 352.746 258.224 363.501 264.648 362.708C270.062 360.759 265.153 354.768 265.226 350.87C265.308 351.176 265.357 351.491 265.37 351.808Z" fill="#452D34"/>
<path d="M466.106 344.662C463.218 343.724 460.259 347.405 461.991 350.003C462.698 350.967 463.159 352.088 463.335 353.271C463.512 354.453 463.397 355.66 463.002 356.788C460.043 360.83 466.178 365.45 468.921 361.047C471.664 356.644 471.52 347.621 466.106 344.662Z" fill="#452D34"/>
<path d="M307.379 626.242C316.159 632.646 326.156 637.194 336.756 639.602C347.355 642.011 358.335 642.231 369.022 640.244C374.508 637.717 371.115 631.295 364.258 633.749C357.885 634.565 351.436 634.588 345.058 633.822C337.21 632.747 329.584 630.434 322.465 626.962C318.444 625.037 314.625 622.713 311.061 620.034C307.091 617.58 303.409 623.861 307.379 626.242Z" fill="white"/>
<path d="M532.008 259.561C526.521 240.433 515.911 223.253 505.228 206.507C491.008 184.42 474.984 161.394 450.731 151.288C438.027 145.947 423.952 144.648 410.165 143.421C376.529 140.461 338.417 138.801 313.442 161.611C306.946 167.602 301.821 174.892 296.913 182.182C290.705 191.421 282.188 204.486 276.558 214.086L278.651 214.231C286.88 209.106 297.49 208.384 307.235 209.683C316.98 210.983 328.239 214.664 338.994 216.035C349.75 217.407 358.556 216.685 368.3 216.035L456.361 210.622C462.858 210.189 470.004 209.972 475.129 214.014C480.253 218.056 480.614 227.945 474.407 229.894L475.273 230.472C477.015 230.618 478.635 231.425 479.803 232.726C480.97 234.028 481.596 235.725 481.553 237.473V238.484C483.185 242.127 483.663 246.182 482.924 250.105C482.817 250.472 482.624 250.807 482.36 251.084C482.096 251.36 481.77 251.569 481.408 251.693C481.408 251.712 481.401 251.73 481.387 251.744C481.374 251.757 481.355 251.765 481.336 251.765C465.24 267.284 471.375 302.725 475.923 331.597C478.304 346.611 481.914 358.593 478.16 367.905C476.067 373.246 488.41 385.156 492.885 388.621C494.329 389.704 496.061 390.786 497.793 390.353C499.526 389.92 500.32 388.765 501.258 387.466C528.182 350.942 544.495 303.23 532.008 259.561Z" fill="#D13535"/>
<path d="M469.643 696.4C463.291 703.401 456.722 706.868 453.619 715.816C450.515 724.771 450.803 735.306 456.578 742.814C459.154 745.943 462.227 748.622 465.673 750.755C471.953 755.083 478.81 759.056 486.389 760.21C487.611 760.356 488.84 760.424 490.07 760.424C500.32 760.424 509.054 752.269 509.487 742.02C509.56 740.647 509.343 739.493 508.837 738.914C506.528 736.606 501.186 730.978 488.266 716.542C480.542 708.022 469.643 696.4 469.643 696.4Z" fill="#EFDCC4"/>
<path d="M571.998 715.383C589.822 705.787 610.178 714.663 616.966 734.006C621.007 761.15 588.094 809.725 539.875 802.943C539.875 802.943 524.356 797.743 521.613 780.493C520.53 773.779 519.52 766.997 517.21 760.57C516.968 759.895 516.922 759.163 517.077 758.46C517.232 757.756 517.582 757.109 518.088 756.597C518.593 756.085 519.232 755.724 519.932 755.561C520.632 755.392 521.365 755.432 522.046 755.663C529.553 760.137 537.998 759.197 545.288 754.149C551.424 750.755 557.776 747.074 561.53 741.154C565.284 735.233 568.891 722.024 570.118 717.696C570.259 717.201 570.495 716.745 570.816 716.345C571.143 715.951 571.542 715.619 571.998 715.383Z" fill="#D13535"/>
<path d="M496.567 399.881C494.531 399.065 492.394 398.531 490.214 398.293C531.502 344.807 536.194 270.027 493.101 216.108C479.748 195.32 465.095 173.665 442.719 161.683C406.917 145.586 325.93 140.317 295.902 169.406C280.456 185.431 267.608 205.353 257.574 224.986C256.275 227.584 258.368 230.616 259.74 233.431C255.264 237.04 248.768 236.318 243.932 239.422C233.682 245.124 238.735 259.344 248.479 262.376C254.254 264.758 261.328 263.819 267.174 265.046C267.752 265.159 268.348 265.147 268.921 265.01C269.493 264.873 270.03 264.615 270.495 264.253C335.891 267.573 401.359 268.223 466.9 266.202C473.757 264.685 471.158 253.714 469.571 248.806C469.932 241.804 470.148 239.205 466.106 238.267C469.21 231.049 464.085 221.377 456.578 218.995C452.463 217.551 447.916 218.273 443.657 218.129C413.775 218.057 383.892 222.171 354.081 223.181C343.253 224.048 332.354 224.408 321.527 222.893C304.564 220.222 286.807 213.004 269.484 218.201C298.79 158.579 337.262 150.422 399.266 158.29C447.844 159.518 469.715 191.133 492.813 229.172C530.78 281.648 520.242 347.405 482.347 396.705L481.697 397.499C481.53 397.62 481.324 397.672 481.119 397.644H481.264C475.056 393.746 470.148 386.383 466.322 380.031C464.013 375.989 457.733 379.67 460.115 383.64C463.291 388.982 468.849 397.644 474.84 401.974C448.855 426.083 487.327 454.594 508.043 432.291C516.561 420.958 509.703 403.995 496.567 399.881ZM259.379 256.457C258.727 256.439 258.08 256.588 257.502 256.89C254.759 256.818 252.16 256.529 250.645 255.591C249.129 254.652 244.654 251.621 245.375 248.373C245.231 249.455 245.448 247.723 245.592 247.579C247.685 243.175 259.451 244.258 265.225 238.123C271.072 240.072 304.492 248.084 304.925 239.567C304.906 238.615 304.52 237.708 303.848 237.035C303.175 236.362 302.267 235.976 301.316 235.957C288.829 236.318 278.29 234.009 266.741 231.627C266.304 230.385 265.772 229.179 265.153 228.018C289.334 215.241 319.506 236.102 347.584 230.833C378.333 229.894 409.082 226.429 439.832 225.202C447.339 224.697 462.136 224.048 459.465 235.524C459.336 235.797 459.192 236.062 459.032 236.318C458.731 236.722 458.334 237.045 457.877 237.256C456.073 237.618 454.846 239.927 455.423 241.732C456.001 243.537 459.465 245.413 460.331 246.857C463.363 250.827 464.013 254.508 463.868 259.055C395.729 261.076 327.446 260.21 259.379 256.457ZM504.434 422.474C503.207 436.477 479.315 435.611 474.262 424.711C471.375 418.143 475.995 411.069 480.687 406.522C484.945 403.923 490.503 405.367 494.906 406.882L494.618 406.738C496.164 407.464 497.638 408.334 499.02 409.337C500.064 410.164 501.009 411.109 501.835 412.152C501.763 412.007 501.691 411.935 501.691 411.863C503.903 414.931 504.882 418.718 504.434 422.474Z" fill="#452D34"/>
<path d="M499.019 409.336C498.947 409.265 498.876 409.265 498.876 409.192C498.876 409.121 498.732 409.336 499.019 409.336Z" fill="#452D34"/>
<path d="M482.78 630.355C482.784 630.232 482.759 630.108 482.708 629.996C482.708 630.142 482.78 630.209 482.78 630.355Z" fill="#452D34"/>
<path d="M505.445 666.808C505.156 666.521 505.084 666.375 505.011 666.375C506.383 668.322 508.548 671.569 511.508 669.768C516.849 665.148 507.826 659.447 505.3 655.547C498.443 647.825 491.008 640.531 483.934 633.029C483.646 632.658 483.381 632.275 483.14 631.87C483.068 631.583 482.924 630.789 482.78 630.356C482.635 629.922 482.707 630.356 482.707 630.142C482.671 629.754 482.671 629.371 482.707 628.982V628.482C482.78 628.116 482.924 627.756 482.996 627.395C483.022 627.367 483.042 627.333 483.055 627.294C483.067 627.26 483.072 627.221 483.068 627.182C484.079 625.229 484.295 625.088 486.244 624.002C486.389 624.002 487.327 623.568 487.616 623.642H489.637C494.545 626.095 498.01 618.953 492.813 617.001C481.264 612.886 470.509 627.108 477.727 637.07C486.75 647.031 496.999 656.126 505.445 666.808ZM483.14 631.796C483.114 631.768 483.095 631.735 483.082 631.701C483.07 631.661 483.065 631.622 483.068 631.583C483.068 631.729 483.068 631.796 483.14 631.796Z" fill="#452D34"/>
<path d="M495.34 686.225C499.815 687.525 501.764 680.523 497.288 679.223C486.317 675.182 474.479 660.674 469.354 648.185C468.994 646.739 468.705 645.731 469.643 643.131L470.293 641.977L470.726 641.544L470.943 641.398H471.52C475.562 645.078 480.904 639.237 476.284 635.843C465.24 628.482 457.878 645.731 464.158 653.959C470.654 667.602 481.12 680.523 495.34 686.225Z" fill="#452D34"/>
<path d="M647.351 655.834C644.031 652.66 638.549 652.153 641.87 655.547L643.963 657.061C654.426 666.735 664.241 683.265 672.109 693.513C683.731 708.309 695.212 727.731 701.706 743.461C707.554 756.89 712.535 774.792 714.122 787.421C715.709 797.602 715.635 812.972 714.409 820.7C713.182 828.421 710.514 838.889 708.561 843.144C701.127 862.274 683.73 875.769 666.267 877.722C650.891 879.596 637.756 876.422 623.1 870.428C612.705 866.314 595.236 855.492 586.074 848.271C578.347 842.21 571.852 834.556 565.858 826.761C559.869 818.966 552.001 807.491 544.711 797.743C567.451 798.897 596.103 782.007 606.211 762.017C612.272 752.196 618.913 741.227 618.699 729.318C618.468 727.45 618.058 725.615 617.472 723.831C623.607 726.431 630.175 727.945 636.309 730.326C638.617 731.192 643.53 734.153 645.623 736.319C648.938 739.567 654.065 734.44 650.745 731.192C642.663 723.324 631.475 721.45 621.367 717.696C618.688 716.526 616.122 715.102 613.718 713.436C613.201 713.104 612.598 712.93 611.985 712.93C603.684 701.527 589.102 695.033 574.885 699.648L572.572 700.227C572.645 697.92 572.499 695.68 572.572 694.166C571.345 680.451 566.078 667.242 559.364 655.333C557.776 652.66 556.044 649.772 553.806 647.606C550.486 644.285 545.361 649.412 548.681 652.733C556.405 662.115 562.685 677.417 565.065 691.712C566.584 700.3 551.857 759.197 517.355 742.454L516.849 742.094C509.343 737.546 501.835 728.525 494.834 720.871C491.08 718.203 487.399 707.949 482.058 712.063C481.722 712.395 481.455 712.789 481.272 713.222C481.09 713.656 480.996 714.123 480.996 714.59C480.996 715.063 481.09 715.53 481.272 715.963C481.455 716.396 481.722 716.79 482.058 717.117C490.142 726.572 498.227 736.173 507.61 744.328C508.548 745.054 509.703 746.135 511.003 747.001L510.858 747.215C510.425 750.395 511.147 753.569 512.013 756.743C511.421 756.749 510.841 756.912 510.334 757.216C509.826 757.52 509.409 757.959 509.126 758.477C508.425 759.36 507.625 760.16 506.744 760.857C502.124 764.471 495.628 764.611 492.669 764.251C484.873 763.384 475.923 757.683 469.643 752.989C459.104 745.988 458.599 731.479 463.796 720.51C465.095 716.903 468.849 710.982 470.364 709.176C471.239 707.909 472.229 706.728 473.324 705.641C476.645 708.675 481.625 703.621 478.304 700.441C474.659 697.194 471.346 693.592 468.416 689.686C464.735 685.504 458.31 674.676 458.238 670.269C458.166 665.868 458.527 664.281 460.331 662.908C462.136 661.541 464.59 659.661 463.074 657.207C458.094 651.793 451.164 661.034 450.948 666.229C450.587 679.437 459.248 690.919 468.199 700.441C424.962 746.348 488.049 789.301 513.962 763.677C514.355 765.236 514.573 766.829 514.611 768.438C516.921 783.454 524.284 791.969 534.101 795.65C534.442 796.471 534.989 797.192 535.689 797.743C547.237 812.398 558.426 831.235 572.645 845.744V846.104C574.52 896.993 576.326 947.808 574.52 998.696C574.52 1003.32 581.74 1003.46 581.74 998.696C582.945 958.225 582.652 917.687 580.874 877.07C580.587 868.915 580.294 860.76 580.08 852.605L580.587 853.032C627.288 891.939 700.553 906.307 719.536 832.609C733.465 765.985 694.486 700.081 647.351 655.834ZM517.643 749.815C517.643 749.815 517.643 749.528 517.788 749.455H517.932C518.004 749.455 518.149 749.528 518.149 749.455C518.149 749.382 518.149 749.528 518.077 749.528C532.512 758.043 546.805 745.701 557.343 735.74C563.624 727.872 567.305 718.563 570.406 709.176C578.634 705.062 586.434 704.488 594.662 707.375C594.662 707.375 594.589 707.375 594.662 707.302C594.735 707.228 595.096 707.515 594.876 707.448C601.877 710.622 606.498 716.976 610.252 724.698C615.019 752.489 581.526 786.774 554.6 790.162C522.046 794.929 523.923 771.832 517.643 749.815Z" fill="#452D34"/>
<path d="M457.3 384.145C477.583 382.196 490.576 353.901 481.048 336.145C479.797 334.145 478.025 332.523 475.923 331.453C484.801 311.387 475.49 288.938 466.539 269.666C465.567 267.514 463.994 265.687 462.009 264.407C460.025 263.127 457.713 262.446 455.351 262.447C415.724 264.83 283.704 256.312 253.821 264.685C237.147 279.049 224.299 324.523 253.821 331.164C236.497 345.745 250.284 376.783 269.412 383.207C271.909 408.636 282.804 432.509 300.378 451.057C308.246 474.372 314.453 506.059 298.718 528.436C260.462 537.819 220.473 551.678 195.282 583.728C194.488 584.735 193.694 585.748 192.972 586.829C160.274 629.562 147.354 685.071 143.744 738.053C140.136 791.029 152.19 886.31 212.173 895.191C210.873 928.346 210.825 961.5 212.028 994.654C212.028 999.275 219.319 999.348 219.246 994.654C218.091 967.151 218.308 939.652 218.813 912.148C218.957 906.74 219.102 901.253 219.391 895.765C227.013 895.923 234.62 895 241.984 893.024C244.437 891.938 248.769 891.505 251.295 889.845C327.59 864.294 375.013 737.833 389.594 669.768C413.631 656.053 401.215 602.204 383.459 600.184C386.274 585.095 391.254 568.065 384.613 552.977C382.304 548.935 376.024 552.616 378.334 556.658C382.015 566.619 380.499 578.528 378.767 587.983C377.179 593.976 375.375 596.576 376.313 602.278C360.577 612.312 336.902 606.318 328.096 589.716C331.199 571.312 332.86 552.039 334.953 533.344C335.025 528.724 330.117 525.981 332.643 519.774C340.511 510.968 387.717 520.207 381.582 537.025C381.798 536.592 381.582 537.169 381.51 537.314C381.553 537.224 381.578 537.125 381.582 537.025C379.922 541.067 375.014 542.872 371.044 541.645L370.682 541.501L369.456 540.706C367.218 537.963 360.794 541.356 364.403 545.831C370.394 551.173 380.211 549.873 385.408 544.171C400.133 548.069 412.403 540.418 423.447 528.508C433.553 529.879 443.73 530.457 453.908 530.818C458.527 530.89 458.599 523.6 453.908 523.6C445.102 523.311 434.707 522.733 426.551 521.723C418.25 499.924 418.467 475.383 421.065 452.14C439.255 433.445 451.526 409.481 457.3 384.145ZM460.837 336.073C464.302 335.711 467.477 335.279 469.86 334.773C470.076 337.155 474.624 338.382 475.49 340.981C476.868 344.84 477.361 348.96 476.934 353.035C476.861 353.251 476.645 354.406 476.861 353.324C475.129 364.656 468.488 373.246 458.671 377.143C461.198 363.574 460.981 349.787 460.837 336.073ZM265.298 372.813C263.23 371.165 261.342 369.302 259.668 367.255C258.287 365.37 257.079 363.366 256.059 361.264L255.77 360.614C253.027 353.757 251.583 344.013 256.709 337.949C257.069 337.588 257.069 337.733 256.853 337.877C259.307 337.011 260.462 335.134 260.534 333.402C262.988 334.124 265.442 334.773 267.824 335.279C267.824 348.487 268.907 361.769 268.835 374.978C267.594 374.363 266.411 373.638 265.298 372.813ZM382.16 535.076C382.087 535.582 382.16 535.221 382.16 534.932V535.076ZM236.57 886.957C234.982 887.391 233.322 887.684 231.661 887.971L230.723 888.184L228.63 888.477C224.837 888.798 221.027 888.871 217.225 888.691C212.238 888.201 207.336 887.064 202.645 885.297L201.562 884.864H201.418L198.675 883.71C191.601 880.103 182.073 871.801 178.319 866.247C162.873 845.671 156.448 820.553 152.767 795.143C149.086 769.738 149.736 739.06 153.417 711.849C156.593 687.305 164.1 657.353 173.989 634.256C179.619 621.114 186.259 608.412 194.488 596.717L197.953 591.956L198.603 591.016L198.747 590.87L199.252 590.222C200.84 588.275 203.872 584.594 205.893 582.428C230.218 556.442 265.587 544.243 299.512 535.654C308.174 539.407 317.413 542.222 326.869 542.872C325.208 557.597 323.187 571.746 321.744 586.469C300.089 594.41 280.023 622.274 287.169 644.358C265.875 677.49 247.325 712.282 226.897 745.988C224.515 749.961 230.795 753.715 233.178 749.669C252.811 717.116 270.856 683.551 291.211 651.359C309.978 667.095 357.401 678.503 381.726 672.655C363.609 749.382 318.929 865.881 236.57 886.957ZM393.636 654.173C393.708 654.032 393.781 653.959 393.781 653.886L393.636 654.173ZM383.459 607.258H383.314C383.387 607.185 383.459 607.185 383.459 607.258ZM380.716 608.266C381.526 608.091 382.26 607.664 382.809 607.039C393.564 613.973 396.596 634.976 395.657 646.378C389.45 684.924 329.9 660.887 305.719 652.513C277.28 641.324 301.317 602.131 322.249 594.049C334.303 615.053 362.743 619.527 380.716 608.266ZM333.004 496.243C327.952 499.852 324.703 508.802 327.59 514.432C323.982 518.33 323.332 524.466 327.735 533.272C327.663 534.065 327.59 534.788 327.59 535.582C320.444 535.365 312.649 532.911 306.225 530.601C311.205 522.878 314.887 508.153 315.031 504.183C316.286 489.692 314.917 475.094 310.989 461.09C320.3 468.669 328.962 473.217 334.375 474.805C334.447 481.951 333.654 489.097 333.004 496.243ZM352.926 509.885C345.924 508.73 339.067 508.875 333.87 510.679C333.942 507.936 334.52 505.265 335.747 503.388L336.108 502.884V503.028C338.779 500.646 342.677 499.996 346.213 499.346H346.069C360.144 497.831 379.994 502.017 380.932 519.63C372.992 513.783 361.227 510.318 352.926 509.885ZM352.204 437.126C351.843 437.054 352.926 437.054 352.926 437.126H352.565C356.824 437.992 360.216 442.901 361.01 447.953C360.577 461.235 360.361 477.836 361.948 492.778C354.871 491.234 347.532 491.358 340.511 493.139C342.243 480.074 340.872 466.793 342.749 453.656C343.615 446.727 346.646 437.198 351.699 437.054C350.183 437.27 351.338 437.126 352.204 437.126ZM409.877 531.251C403.742 535.726 397.462 539.335 388.872 537.675C390.388 532.55 388.945 528.002 385.768 524.177C386.466 523.955 387.069 523.51 387.487 522.909C387.905 522.309 388.113 521.587 388.079 520.857C388.439 508.08 380.139 499.346 369.311 495.016C368.628 490.136 368.266 485.217 368.229 480.291C384.83 477.909 400.277 470.258 413.053 459.503C411.248 481.157 412.187 501.584 418.972 522.661C416.445 525.332 411.176 530.385 409.877 531.251ZM368.156 473.072C367.579 462.029 369.672 450.263 365.918 439.869C374.292 439.653 387.284 438.281 385.047 430.847C384.036 429.33 381.726 428.392 380.066 429.547C374.58 433.156 366.496 432.579 359.783 432.723C356.246 430.197 351.987 429.042 347.873 430.558L347.368 430.341H347.44C343.254 426.732 337.696 431.929 341.882 435.538C335.097 444.2 334.737 456.399 334.52 467.659C303.266 453.223 281.178 419.081 276.847 385.011C275.476 370.07 275.62 352.025 275.042 336.65C338.273 345.095 300.955 325.75 331.633 304.962C350.255 294.135 360.361 314.995 365.918 308.932C376.024 303.085 392.409 298.827 400.205 310.448C416.445 341.775 418.322 339.032 453.619 336.794C453.619 348.127 453.98 359.459 452.392 370.72C445.895 416.122 416.301 464.483 368.156 473.072Z" fill="#452D34"/>
<path d="M330.838 296.879C331.705 296.301 332.643 295.796 333.581 295.29L334.375 294.93C333.87 295.146 335.169 294.496 334.375 294.93C334.94 294.681 335.519 294.465 336.107 294.28C337.053 293.958 338.018 293.692 338.995 293.486L340.583 293.197C341.521 293.053 339.789 293.269 340.727 293.197H341.593C342.648 293.077 343.709 293.028 344.769 293.053H346.141L347.007 293.197H347.368C349.457 293.572 351.51 294.128 353.503 294.857H353.72L354.225 295.146L356.535 296.084C357.831 296.441 359.162 296.658 360.505 296.734C363.321 296.784 366.104 296.113 368.589 294.785L370.033 294.063L370.971 293.702C370.322 293.919 370.826 293.702 370.971 293.63L374.652 292.403L378.117 291.681C378.839 291.537 378.189 291.681 378.045 291.681H378.983L380.715 291.537C381.97 291.501 383.226 291.574 384.469 291.753C383.603 291.609 384.541 291.753 384.685 291.826L385.551 291.97L387.284 292.403L389.161 293.053C389.81 293.269 389.233 293.053 389.089 293.053L390.171 293.486C391.272 294.091 392.333 294.766 393.347 295.507C394.863 296.662 397.461 295.796 398.255 294.207C399.05 292.62 398.616 290.526 396.956 289.299C388.872 283.092 377.539 283.236 368.445 286.99L364.691 288.722C364.547 288.794 363.608 289.155 364.403 288.866L363.464 289.227L362.742 289.371C362.598 289.443 361.443 289.588 362.382 289.516H360.505C360.505 289.516 359.494 289.443 360.072 289.516C360.649 289.588 359.638 289.443 359.638 289.443L357.834 288.866H357.617L356.823 288.505C352.307 286.513 347.39 285.599 342.46 285.835C337.038 286.034 331.773 287.706 327.229 290.671C326.41 291.153 325.814 291.939 325.571 292.858C325.327 293.777 325.456 294.754 325.93 295.579C326.941 297.167 329.178 297.961 330.838 296.879Z" fill="white"/>
<path d="M314.309 298.394L312.072 300.054C311.669 300.287 311.323 300.608 311.061 300.993C310.76 301.351 310.539 301.769 310.411 302.219C310.267 302.69 310.267 303.193 310.411 303.663C310.419 304.12 310.543 304.567 310.772 304.963L311.349 305.685C311.779 306.141 312.33 306.466 312.938 306.623L313.948 306.767C314.586 306.78 315.214 306.604 315.753 306.262L317.918 304.674C318.32 304.439 318.665 304.118 318.929 303.736C319.266 303.403 319.493 302.974 319.578 302.508C319.742 302.044 319.767 301.543 319.65 301.065C319.651 300.574 319.499 300.095 319.217 299.693L318.64 298.972C318.193 298.536 317.649 298.215 317.052 298.033L316.114 297.889C315.48 297.911 314.861 298.084 314.309 298.394Z" fill="white"/>
<path d="M423.519 326.473C424.772 327.513 426.155 328.386 427.633 329.071C429.107 329.759 430.658 330.268 432.253 330.587C432.723 330.719 433.216 330.744 433.696 330.659C434.151 330.591 434.591 330.444 434.996 330.226C435.41 330.003 435.772 329.695 436.058 329.322C436.345 328.949 436.548 328.519 436.656 328.06C436.793 327.592 436.832 327.1 436.77 326.615C436.708 326.131 436.546 325.665 436.295 325.246C436.068 324.834 435.759 324.474 435.386 324.188C435.014 323.903 434.585 323.697 434.13 323.586C432.914 323.393 431.727 323.053 430.592 322.575L431.459 322.936C430.227 322.404 429.063 321.726 427.994 320.915L428.716 321.492H428.643C428.326 321.141 427.93 320.869 427.489 320.699C427.036 320.493 426.542 320.394 426.045 320.409C425.339 320.419 424.651 320.637 424.067 321.034C423.483 321.431 423.027 321.991 422.759 322.644C422.49 323.298 422.418 324.015 422.553 324.708C422.689 325.402 423.024 326.041 423.519 326.545V326.473Z" fill="white"/>
<path d="M250.573 276.524C244.621 283.399 240.941 291.945 240.035 300.993C239.818 302.87 241.839 304.674 243.643 304.602C245.448 304.53 247.036 303.014 247.252 300.993C247.252 300.776 247.325 300.487 247.325 300.271C247.325 300.055 247.252 300.921 247.325 300.199C247.386 299.688 247.483 299.181 247.613 298.683C247.758 297.745 247.975 296.806 248.191 295.94L249.057 293.198C249.193 292.706 249.362 292.223 249.562 291.753L249.851 291.104C249.996 290.526 249.49 291.826 249.851 290.96C250.641 289.224 251.533 287.537 252.522 285.907L254.182 283.453L254.543 282.948C254.11 283.597 254.543 283.02 254.615 282.875L255.698 281.576C256.925 280.205 257.213 277.895 255.698 276.524C254.182 275.152 251.872 274.935 250.573 276.524Z" fill="white"/>
<path d="M287.601 332.752C292.31 333.367 297.087 333.221 301.749 332.319C303.626 331.958 304.853 329.577 304.275 327.844C303.99 326.933 303.369 326.164 302.538 325.695C301.707 325.226 300.727 325.09 299.8 325.318L298.212 325.607H297.274C296.221 325.751 295.16 325.823 294.098 325.823C291.926 325.883 289.753 325.762 287.601 325.462C286.654 325.497 285.754 325.883 285.075 326.545C284.73 326.869 284.455 327.26 284.267 327.695C284.079 328.129 283.981 328.598 283.981 329.071C283.981 329.544 284.079 330.013 284.267 330.448C284.455 330.882 284.73 331.273 285.075 331.598C285.765 332.243 286.659 332.626 287.601 332.68V332.752Z" fill="white"/>
<path d="M549.62 769.952C568.025 766.418 591.916 755.376 592.782 734.006C591.555 727.658 584.414 730.326 585.421 736.46C585.421 736.393 585.567 735.593 585.494 736.319C585.241 737.726 584.858 739.1 584.34 740.434C584.121 740.94 584.34 740.287 584.414 740.287C582.68 744.761 578.06 749.382 575.172 751.549C571.222 754.425 566.961 756.845 562.468 758.764C557.714 760.745 552.749 762.174 547.671 763.024C543.195 764.178 545.072 771.179 549.62 769.952Z" fill="white"/>
</svg>
