<svg width="34" height="34" viewBox="0 0 34 34" fill="none" xmlns="http://www.w3.org/2000/svg">
<path d="M20.145 30.6425C18.4733 30.6425 16.1075 29.4667 14.2375 23.8425L13.2175 20.7825L10.1575 19.7625C4.54751 17.8925 3.37167 15.5267 3.37167 13.855C3.37167 12.1975 4.54751 9.81754 10.1575 7.93337L22.185 3.92421C25.1883 2.91837 27.6958 3.21587 29.24 4.74587C30.7842 6.27587 31.0817 8.79754 30.0758 11.8009L26.0667 23.8284C24.1825 29.4667 21.8167 30.6425 20.145 30.6425ZM10.8233 9.95921C6.88501 11.2767 5.48251 12.835 5.48251 13.855C5.48251 14.875 6.88501 16.4334 10.8233 17.7367L14.3933 18.9267C14.705 19.0259 14.96 19.2809 15.0592 19.5925L16.2492 23.1625C17.5525 27.1009 19.125 28.5034 20.145 28.5034C21.165 28.5034 22.7233 27.1009 24.0408 23.1625L28.05 11.135C28.7725 8.95337 28.645 7.16837 27.7242 6.24754C26.8033 5.32671 25.0183 5.21337 22.8508 5.93587L10.8233 9.95921Z" fill="white"/>
<path d="M14.3225 20.4C14.0533 20.4 13.7842 20.3009 13.5717 20.0884C13.1608 19.6775 13.1608 18.9975 13.5717 18.5867L18.6433 13.5009C19.0542 13.09 19.7342 13.09 20.145 13.5009C20.5558 13.9117 20.5558 14.5917 20.145 15.0025L15.0733 20.0884C14.875 20.3009 14.5917 20.4 14.3225 20.4Z" fill="white"/>
</svg>
