<svg width="1127" height="1127" viewBox="0 0 1127 1127" fill="none" xmlns="http://www.w3.org/2000/svg">
<path d="M661.922 316.825C630.423 271.839 515.06 270.786 478.36 283.283C388.715 313.866 383.125 379.044 383.848 395.421C383.848 395.421 409.761 365.955 424.231 355.958C438.7 345.961 457.905 332.018 482.766 323.994C507.627 315.97 542.946 307.552 571.098 305.578C621.277 302.158 661.922 316.825 661.922 316.825Z" fill="#D13535"/>
<path d="M714.409 410.219C714.392 409.844 714.353 409.47 714.279 409.102C709.147 377.269 697.373 339.319 666.07 324.587C630.62 280.784 540.578 279.403 489.277 288.742C441.857 300.843 395.621 334.781 385.295 384.832C384.9 388.384 382.138 399.499 383.125 405.681C362.933 435.541 358.461 512.952 411.538 483.224C432.124 472.899 445.607 453.759 463.561 439.947C519.598 399.696 593.587 380.491 659.62 406.734C672.182 410.877 684.547 415.547 697.311 418.638C705.134 421.663 715.067 420.677 714.409 410.219ZM485.068 296.634C515.651 288.873 549.195 289.597 580.367 293.28C596.942 295.517 613.848 299.265 629.303 305.645C637.654 309.131 646.732 314.326 653.638 320.509C563.072 294.661 451.657 325.573 390.03 397.131C394.042 348.132 437.516 310.446 485.068 296.634ZM705.398 413.639C695.533 411.798 685.999 408.706 676.527 405.484C627.924 386.213 573.203 380.425 524.004 401.143C494.868 412.258 465.929 426.333 443.699 448.629C437.188 455.009 429.427 463.099 423.113 467.966C414.563 474.411 402.922 481.646 393.582 483.092C390.294 483.422 388.189 483.356 385.229 482.172C382.27 480.988 379.836 478.291 378.258 474.28C375.495 466.453 375.035 457.311 376.087 448.037C376.222 447.635 376.289 447.212 376.284 446.788C376.284 446.59 376.35 446.327 376.35 446.13C376.491 445.249 376.734 444.389 377.074 443.565L377.6 442.644C377.929 442.052 378.323 441.46 378.718 440.868L378.85 440.737C382.401 436.264 387.137 432.844 391.543 429.293C395.95 425.741 402.066 421.729 407.591 419.493C408.907 418.835 415.747 416.862 417.128 416.862C419.812 416.511 422.528 416.489 425.218 416.797C426.533 416.994 427.849 417.322 429.164 417.652C433.241 418.835 435.017 412.456 430.939 411.337C420.548 408.246 409.499 410.811 400.159 415.744C394.174 419.691 386.019 424.426 379.639 430.214C380.823 426.136 382.204 422.124 383.717 418.309C384.111 416.862 387.992 409.693 388.781 408.97L388.913 408.838C389.058 408.714 389.17 408.556 389.241 408.378C444.028 338.859 538.54 309.92 624.631 320.509C640.418 322.942 660.211 326.494 673.696 336.689C695.139 354.775 703.62 383.977 707.897 410.745C707.965 412.258 707.306 414.231 705.398 413.639Z" fill="#452D34"/>
<path d="M741.44 892.049C763.108 857.966 774.566 818.396 774.459 778.004C774.459 742.953 766.366 709.669 750.383 679.154C735.559 650.924 714.566 626.398 688.953 607.397C716.013 576.601 730.887 536.979 730.786 495.983C730.786 465.006 724.275 441.526 708.359 415.086C708.117 414.674 707.79 414.313 707.408 414.026C707.025 413.739 706.586 413.532 706.119 413.416C705.657 413.299 705.173 413.277 704.695 413.349C704.222 413.421 703.766 413.587 703.361 413.837C702.956 414.079 702.601 414.401 702.32 414.782C702.044 415.162 701.841 415.595 701.729 416.054C701.622 416.514 701.605 416.991 701.678 417.457C701.757 417.923 701.926 418.369 702.173 418.77C717.369 444.025 723.549 466.387 723.549 495.983C723.549 585.364 650.807 658.106 561.427 658.106C472.046 658.106 399.238 585.364 399.238 495.983V492.761C399.156 490.807 399.222 488.851 399.436 486.907C399.478 486.432 399.428 485.953 399.286 485.498C399.144 485.042 398.914 484.619 398.608 484.253C398.303 483.886 397.929 483.584 397.506 483.362C397.084 483.141 396.622 483.004 396.147 482.961C395.188 482.874 394.233 483.171 393.493 483.788C392.753 484.405 392.288 485.29 392.201 486.25C391.988 488.457 391.922 490.676 392.003 492.892V495.983C391.901 536.979 406.776 576.601 433.833 607.397C408.259 626.443 387.288 650.986 372.47 679.222C356.487 709.737 348.398 743.015 348.398 778.004C348.398 818.981 359.842 858.248 381.348 891.987C332.942 938.88 307.423 1000.77 307.423 1071.21C307.423 1072.17 307.804 1073.09 308.483 1073.77C309.161 1074.45 310.081 1074.83 311.04 1074.83C312 1074.83 312.92 1074.45 313.598 1073.77C314.277 1073.09 314.658 1072.17 314.658 1071.21C314.658 1003.2 339.124 943.483 385.426 898.167C392.939 909.074 401.414 919.289 410.748 928.687C450.717 968.612 504.901 991.04 561.394 991.04C617.889 991.04 672.069 968.612 712.039 928.687C721.404 919.317 729.886 909.102 737.36 898.167C783.008 944.074 808.131 1005.37 808.131 1071.21C808.131 1072.17 808.514 1073.09 809.189 1073.77C809.87 1074.45 810.788 1074.83 811.75 1074.83C812.707 1074.83 813.63 1074.45 814.305 1073.77C814.986 1073.09 815.363 1072.17 815.363 1071.21C815.363 1002.94 789.126 939.403 741.44 892.049ZM561.427 983.802C447.908 983.802 355.633 891.526 355.633 778.004C355.633 711.841 385.887 651.791 438.7 612.789L441.594 615.749C473.376 647.508 516.466 665.349 561.394 665.349C606.323 665.349 649.411 647.508 681.192 615.749L684.091 612.789C736.966 651.661 767.222 711.712 767.222 778.004C767.222 891.526 674.883 983.802 561.427 983.802Z" fill="#452D34"/>
<path d="M536.961 470.07C532.357 467.439 525.912 471.78 526.504 477.042C527.096 482.303 534.462 486.513 538.803 482.238C543.143 477.963 540.907 471.649 536.961 470.07Z" fill="#452D34"/>
<path d="M641.735 471.188C637.193 468.558 630.681 472.898 631.278 478.16C631.869 483.422 639.298 487.631 643.642 483.356C647.982 479.081 645.747 472.767 641.735 471.188Z" fill="#452D34"/>
<path d="M665.541 506.046C667.381 511.768 651.927 518.674 658.9 518.477C660.825 518.408 662.733 518.053 664.556 517.424C673.567 514.53 679.026 506.309 676.656 499.008C674.287 491.708 665.147 488.222 656.137 491.116C651.769 492.419 648.016 495.242 645.545 499.074C643.575 502.297 664.421 502.56 665.541 506.046Z" fill="#D13535"/>
<path d="M534.042 510.283C536.094 502.936 530.354 494.913 521.223 492.363C512.092 489.814 503.027 493.703 500.975 501.05C498.924 508.397 504.663 516.42 513.795 518.969C522.926 521.519 531.991 517.629 534.042 510.283Z" fill="#D13535"/>
<path d="M606.481 532.419C565.639 534.458 578.2 495.654 596.812 498.153C619.504 501.244 642.061 506.177 660.807 510.518C665.805 511.636 665.805 518.805 660.807 519.989L606.481 532.419Z" fill="#CE9C5C"/>
<path d="M661.596 499.798C641.402 495.128 619.633 490.393 597.335 487.367C590.565 486.446 583.986 489.67 579.708 496.049C575.437 502.429 574.452 511.242 578.065 517.622C580.964 522.883 587.802 528.934 603.453 528.934H606.61L607.269 528.803L661.596 516.372C663.453 515.93 665.107 514.876 666.289 513.377C667.471 511.88 668.118 510.027 668.118 508.118C668.118 506.209 667.471 504.356 666.289 502.858C665.107 501.361 663.453 500.305 661.596 499.864V499.798ZM660.014 509.269L625.419 517.161C625.88 514.728 626.342 512.294 626.736 509.861C627.923 505.717 621.474 503.942 620.421 508.085C620.556 510.847 618.384 515.386 618.316 518.806L605.952 521.634C595.033 522.094 587.34 519.463 584.38 514.07C582.078 510.058 582.607 504.599 585.697 500.127C588.786 495.654 591.55 494.471 595.101 494.471H596.35L602.468 495.326C597.076 510.124 608.321 509.926 607.533 503.284V502.297C607.927 500.324 608.715 498.417 609.047 496.378C621.012 498.351 632.853 500.719 644.233 503.218C644.284 503.566 644.306 503.919 644.295 504.27C644.25 504.566 644.16 504.854 644.036 505.125C643.907 505.402 643.749 505.667 643.575 505.915C638.836 511.9 648.443 514.991 650.48 506.704C650.711 506.067 650.869 505.404 650.942 504.731L660.014 506.77C660.29 506.817 660.538 506.966 660.706 507.184C660.875 507.403 660.96 507.677 660.937 507.953C660.977 508.248 660.903 508.548 660.734 508.791C660.566 509.035 660.307 509.205 660.014 509.269Z" fill="#452D34"/>
<path d="M978.873 610.622C972.558 618.186 966.637 626.403 960.058 633.179C959.158 634.159 958.055 634.935 956.833 635.453C955.607 635.976 954.29 636.23 952.956 636.207C944.671 635.943 944.142 624.76 940.923 617.528C934.935 604.173 914.545 603.323 903.3 612.66C892.055 621.996 887.975 637.321 885.673 651.791C884.019 661.803 882.989 671.911 882.584 682.047C882.19 692.571 886.793 697.304 893.17 705.724C893.761 706.579 892.646 713.288 892.973 714.211C894.813 719.535 895.145 725.326 897.318 730.521C901.263 740.122 910.864 746.504 920.927 748.806C930.99 751.108 941.644 749.723 951.706 747.292C987.461 738.721 1019.05 717.801 1040.89 688.232C1054.24 670.009 1063.78 647.322 1059.77 625.154C1058.85 620.094 1052.27 601.741 1039.71 598.978" fill="#D13535"/>
<path d="M721.381 770.44C719.969 768.498 718.776 766.399 717.83 764.193C717.96 764.525 718.027 764.587 717.96 764.525C716.93 762.015 716.221 759.381 715.855 756.696C715.393 753.145 715.725 746.831 717.892 742.03C717.825 742.148 717.78 742.283 717.763 742.424C718.393 740.82 719.209 739.295 720.194 737.888C722.434 734.201 716.71 730.915 714.538 734.533C705.527 747.883 707.964 767.682 719.935 778.465C722.895 781.426 727.629 776.755 724.539 773.794C723.419 772.742 722.366 771.622 721.381 770.44Z" fill="#452D34"/>
<path d="M935.92 607.465H935.858C935.92 607.988 936.055 607.859 935.92 607.465Z" fill="#452D34"/>
<path d="M1038.39 584.047C1032.34 583.591 1033.33 590.755 1038.79 591.02H1038.72C1045.43 594.11 1048.78 599.771 1052.21 607.268C1054.97 612.789 1055.95 623.842 1054.7 632.194C1052.6 647.716 1044.51 663.761 1034.25 677.049L1033.99 677.375L1033.72 677.707C1025.85 687.708 1016.79 696.719 1006.76 704.542C982.424 723.221 932.763 746.83 906.328 727.825C904.814 726.834 901.724 723.48 901.325 722.956C900.143 721.358 899.13 719.636 898.302 717.824C896.592 713.614 896.001 709.01 894.881 704.671C893.896 699.212 888.566 693.691 887.12 689.543C881.464 676.458 884.097 662.315 885.606 647.98C885.639 647.784 885.662 647.587 885.673 647.384C888.105 630.613 891.003 613.385 903.829 602.923C905.315 601.854 906.896 600.931 908.562 600.165H908.759C910.937 599.27 913.211 598.629 915.535 598.257H915.665C916.059 598.19 915.794 598.257 915.597 598.257C917.803 597.993 920.038 597.993 922.244 598.257C924.129 598.544 925.981 599.028 927.765 599.704C928.294 599.901 927.568 599.636 927.568 599.569C930.005 600.593 932.166 602.169 933.883 604.172C934.676 605.185 935.34 606.288 935.858 607.465C938.751 614.438 939.409 624.101 947.429 627.196C957.824 630.613 964.071 619.238 969.795 612.727C971.764 608.782 982.818 600.424 979.002 596.614C977.82 595.494 975.518 595.162 974.398 596.614C967.819 604.307 962.101 612.789 954.796 619.829C954.396 620.167 953.952 620.454 953.485 620.685L952.956 620.882L951.903 621.146H950.389L949.011 620.747C950.192 621.079 948.881 620.685 948.481 620.42L948.352 620.291L947.429 619.3C946.827 618.406 946.298 617.46 945.853 616.475C941.908 599.372 932.763 589.179 914.089 591.808C885.938 596.614 880.805 630.219 878.306 653.896C875.543 671.128 876.927 689.284 887.187 702.898C875.61 710.395 863.049 716.18 850.42 721.639C822.071 733.543 784.781 744.99 754.266 748.738C745.385 749.723 736.509 750.314 727.561 749.723C723.351 749.661 723.289 756.302 727.561 756.302C775.05 757.355 821.481 741.242 864.563 722.495C867.585 720.655 881.137 715.128 888.831 709.866C901.066 763.405 973.081 737.161 1005.18 713.878C1033.99 692.768 1060.95 661.195 1061.81 623.842C1061.94 608.253 1054.51 588.915 1038.39 584.047ZM908.759 600.098L908.956 599.968L908.759 600.098Z" fill="#452D34"/>
<path d="M1038.79 591.021C1039.11 591.155 1039.31 591.414 1038.79 591.021V591.021Z" fill="#452D34"/>
<path d="M191.471 673.498C188.116 677.967 186.011 683.364 182.394 687.703C175.685 695.594 164.636 698.818 154.31 697.896C143.985 696.978 134.382 692.504 125.503 687.18C94.0436 668.084 70.2969 638.543 58.4174 603.717C51.2485 582.342 49.0781 557.873 59.6668 537.945C70.2558 518.016 96.6297 505.652 116.624 516.175C137.605 527.158 141.88 554.979 152.205 575.892C152.752 577.097 153.553 578.166 154.552 579.027C155.551 579.888 156.725 580.53 157.993 580.896C166.018 583.197 169.898 572.735 175.16 566.82C184.959 555.9 204.559 561.227 212.451 573.59C220.343 585.955 219.62 601.742 217.449 616.211C215.971 626.246 213.863 636.173 211.136 645.938C208.373 656.068 205.545 654.554 196.929 660.672C196.074 661.263 192.062 672.643 191.471 673.498Z" fill="#D13535"/>
<path d="M233.563 680.471C225.187 675.147 217.365 669.001 210.215 662.118C208.833 661.263 207.518 659.49 206.071 657.976C216.266 648.898 221.264 635.352 223.632 622.064C227.71 601.151 233.695 576.551 220.738 557.61C206.269 539.392 182.657 540.641 172.594 560.57C171.392 562.209 169.899 563.614 168.188 564.715L167.267 564.974H166.083C165.13 564.816 164.228 564.434 163.452 563.86H163.386C162.806 563.361 162.297 562.786 161.874 562.149C156.283 551.23 152.863 538.866 147.273 526.961C136.618 499.864 108.6 487.105 82.7522 503.087C44.0795 526.369 52.7612 580.237 71.2424 614.236C88.2113 649.36 154.31 716.316 192.128 675.733C195.351 671.59 197.39 666.79 200.415 662.512L200.81 662.186C207.584 670.605 226.789 683.758 230.275 686.127C233.76 688.491 237.246 682.638 233.563 680.471ZM186.866 671.917C185.691 673.346 184.392 674.663 182.986 675.868C181.156 677.201 179.195 678.35 177.132 679.284C174.425 680.443 171.569 681.214 168.648 681.586C152.008 683.826 133.856 672.643 119.583 661.921C98.6197 645.713 82.1584 624.405 71.7686 600.031C64.9942 583.85 60.193 564.648 62.6924 546.298C63.021 542.746 65.1259 534.657 66.7704 531.105C68.34 527.283 70.3959 523.68 72.8869 520.385C73.6759 519.004 79.8583 512.952 81.1082 512.229C89.7899 505.257 102.089 501.574 111.363 502.955C117.479 503.876 121.622 505.718 126.621 509.466C133.461 514.333 140.301 526.435 143.327 534.196C148.72 545.443 150.824 559.057 158.914 568.728C170.687 577.935 178.514 563.266 183.775 556.295C190.549 548.797 201.994 550.244 210.807 556.69C212.421 558.03 213.897 559.528 215.213 561.162C216.592 563.174 217.78 565.312 218.765 567.54C222.711 576.354 222.448 590.232 221.001 600.031C219.094 612.333 216.529 626.932 212.517 637.586C209.725 644.3 205.292 650.198 199.626 654.751C198.025 655.539 196.646 656.716 195.614 658.173L195.022 658.894C191.996 663.041 189.958 667.775 186.866 671.917Z" fill="#452D34"/>
<path d="M354.054 735.389C333.665 726.902 311.829 717.959 292.099 709.669C282.167 705.46 272.236 701.121 262.568 696.32C258.885 694.147 255.53 699.871 259.213 701.976C282.759 713.485 307.291 722.89 331.429 733.087L352.344 741.698C356.356 742.953 358.198 736.571 354.054 735.389Z" fill="#452D34"/>
<path d="M545.774 777.216C559.177 777.216 570.046 766.348 570.046 752.948C570.046 739.542 559.177 728.68 545.774 728.68C532.371 728.68 521.505 739.542 521.505 752.948C521.505 766.348 532.371 777.216 545.774 777.216Z" fill="#CE9C5C"/>
<path d="M545.774 902.641C559.177 902.641 570.046 891.774 570.046 878.374C570.046 864.968 559.177 854.1 545.774 854.1C532.371 854.1 521.505 864.968 521.505 878.374C521.505 891.774 532.371 902.641 545.774 902.641Z" fill="#CE9C5C"/>
<path d="M536.829 778.268C500.13 777.61 500.13 723.086 536.829 722.427C573.462 723.086 573.462 777.61 536.829 778.268ZM536.829 729.665C509.601 730.126 509.601 770.575 536.829 771.036C564.058 771.492 563.99 730.126 536.829 729.665Z" fill="#452D34"/>
<path d="M536.829 903.693C500.13 903.035 500.13 848.511 536.829 847.853C573.462 848.511 573.462 903.035 536.829 903.693ZM536.829 855.09C509.601 855.546 509.601 896 536.829 896.456C564.058 896.917 563.99 855.546 536.829 855.09Z" fill="#452D34"/>
<path d="M964.004 680.139L965.456 678.89C967.763 677.123 970.279 675.643 972.952 674.483C976.239 672.969 982.357 671.326 987.028 670.735C991.694 670.144 998.599 669.88 1004 669.75C1008.27 669.812 1008.27 663.171 1004 663.171C991.564 663.503 978.67 663.959 967.358 669.88C964.465 671.405 961.77 673.284 959.338 675.468C956.31 678.428 960.982 683.1 964.004 680.139Z" fill="#452D34"/>
<path d="M958.218 649.163C957.273 649.748 956.462 650.536 955.849 651.465C953.547 654.69 955.522 659.226 959.468 659.946C963.413 660.672 963.807 661.196 963.086 665.079C962.912 665.991 962.974 666.93 963.261 667.808C963.548 668.692 964.054 669.486 964.73 670.121C965.4 670.757 966.227 671.213 967.122 671.444C968.022 671.68 968.962 671.686 969.863 671.461C972.339 670.724 974.703 669.666 976.897 668.304C977.73 667.792 978.682 667.499 979.661 667.448C985.908 667.313 1002.02 670.076 997.35 651.268C997.209 650.801 997.164 650.305 997.22 649.821C997.282 649.118 997.203 648.409 996.989 647.739C996.776 647.069 996.427 646.45 995.965 645.916C995.504 645.381 994.941 644.948 994.31 644.632C993.68 644.323 992.993 644.137 992.29 644.098C991.091 643.974 989.966 643.479 989.06 642.691C988.153 641.903 987.512 640.856 987.225 639.691V639.562C987.028 638.774 986.662 638.048 986.15 637.423C985.638 636.793 984.996 636.292 984.265 635.943C983.533 635.599 982.739 635.419 981.929 635.419C981.124 635.419 980.325 635.599 979.593 635.943C971.506 639.427 959.4 637.322 959.862 646.332C959.89 646.912 959.749 647.486 959.456 647.987C959.164 648.493 958.736 648.898 958.218 649.163Z" fill="#EFDCC4"/>
<path d="M967.555 668.106L967.819 668.236C967.819 668.168 967.69 668.168 967.555 668.106Z" fill="#452D34"/>
<path d="M990.579 639.426C990.579 639.393 990.573 639.359 990.562 639.325C990.551 639.291 990.534 639.258 990.511 639.229C990.534 639.258 990.551 639.291 990.562 639.325C990.573 639.359 990.579 639.393 990.579 639.426Z" fill="#452D34"/>
<path d="M1001.43 655.607C1000.7 649.163 1000.18 641.075 991.958 640.676C991.829 640.676 990.776 639.82 991.238 640.22C991.694 640.614 990.641 639.623 990.579 639.426C990.579 639.297 990.315 638.835 990.512 639.167C989.589 632.982 981.434 630.81 978.277 632.853C970.516 635.943 956.181 634.496 956.508 646.27C956.508 646.202 956.508 646.202 956.575 646.202C956.643 646.005 956.643 646.202 956.575 646.202H956.508C948.617 650.48 951.048 662.58 959.997 663.368C960.014 663.48 959.991 663.599 959.929 663.7C959.997 663.632 959.997 663.565 960.059 663.368C957.892 675.997 971.045 676.92 978.935 670.802C990.247 671.061 1002.61 670.273 1001.43 655.607ZM993.866 649.095H993.934C993.866 648.898 993.866 648.572 993.866 649.095ZM992.814 647.581C992.943 647.649 993.14 647.649 992.814 647.581V647.581ZM991.761 640.614C991.694 640.614 991.694 640.614 991.694 640.546C991.694 640.479 991.694 640.614 991.761 640.614ZM983.871 639.82C983.803 639.691 983.803 639.758 983.871 639.82V639.82ZM984 640.152C983.933 640.22 983.933 640.085 983.871 640.023L984 640.152ZM956.643 646.27C956.772 646.135 956.901 645.876 956.643 646.27V646.27ZM971.568 667.381C971.703 667.313 971.832 667.313 971.568 667.381V667.381ZM994.918 658.044C994.851 660.081 993.934 662.186 992.026 663.041C991.694 663.238 990.641 663.565 991.829 663.171C986.567 665.54 980.449 662.709 975.316 665.405C973.149 666.593 970.91 668.039 968.411 668.304C968.411 668.32 968.422 668.337 968.433 668.349C968.444 668.36 968.461 668.365 968.478 668.365H967.82C967.955 668.433 967.229 668.168 967.555 668.236L967.296 668.107C967.358 668.236 967.161 668.039 967.099 667.972C966.841 667.746 966.621 667.476 966.441 667.184C966.441 667.054 966.373 666.987 966.441 667.054C966.356 666.891 966.311 666.711 966.306 666.525C967.555 660.346 965.124 657.644 959.203 656.53L958.809 656.265H958.944L958.747 656.001C958.877 656.333 958.612 655.804 958.483 655.804H958.545C958.207 655.28 958.089 654.639 958.218 654.031C958.286 653.896 958.545 653.502 958.286 653.896C958.663 653.17 959.203 652.54 959.862 652.056C964.268 649.754 961.837 645.876 964.269 643.439L964.139 643.574C969.137 640.94 976.307 641.334 980.91 638.971L981.501 638.835H981.434C981.856 638.751 982.289 638.796 982.683 638.971C982.357 638.706 982.88 639.1 982.948 639.032L983.077 639.167H983.145C983.015 639.032 983.409 639.426 983.477 639.365H983.409C984.788 642.781 986.567 646.399 990.641 647.187C991.564 647.452 992.617 647.322 993.343 648.043C994.063 648.769 993.669 648.375 993.669 648.504C993.669 648.634 993.737 648.572 993.798 648.701C993.973 650.761 994.282 652.804 994.721 654.819C994.721 654.948 994.789 655.41 994.721 655.145C994.879 656.102 994.947 657.07 994.918 658.044Z" fill="#452D34"/>
<path d="M968.084 668.304C968.213 668.304 968.28 668.365 968.41 668.304H968.084Z" fill="#452D34"/>
<path d="M982.948 638.965H982.683C982.751 638.965 982.818 639.032 982.948 638.965Z" fill="#452D34"/>
<path d="M983.409 639.297L983.144 639.1C983.212 639.167 983.279 639.297 983.409 639.297Z" fill="#452D34"/>
<path d="M993.798 648.634C993.798 648.572 993.736 648.505 993.669 648.437C993.601 648.375 993.736 648.572 993.798 648.634Z" fill="#452D34"/>
<path d="M967.161 667.904H967.296L967.099 667.775C967.116 667.769 967.133 667.763 967.155 667.769C967.172 667.775 967.189 667.791 967.195 667.808C967.206 667.825 967.206 667.848 967.2 667.865C967.195 667.882 967.178 667.898 967.161 667.904Z" fill="#452D34"/>
<path d="M966.305 666.327C966.305 666.2 966.372 666.327 966.305 666.327V666.327Z" fill="#452D34"/>
<path d="M958.944 656.198L959.203 656.395C959.192 656.339 959.158 656.288 959.107 656.254C959.062 656.215 959 656.198 958.944 656.198Z" fill="#452D34"/>
<path d="M966.441 666.919V667.053C966.508 666.986 966.441 666.986 966.441 666.919Z" fill="#452D34"/>
<path d="M958.544 655.742L958.747 655.939C958.747 655.894 958.68 655.827 958.544 655.742Z" fill="#452D34"/>
<path d="M966.902 507.559C968.743 510.823 970.262 514.259 971.439 517.819C971.59 518.29 971.641 518.786 971.59 519.277C971.54 519.768 971.394 520.245 971.151 520.676C970.909 521.107 970.583 521.484 970.195 521.785C969.801 522.085 969.351 522.303 968.872 522.423L951.313 525.58C951.054 525.623 950.784 525.598 950.536 525.511C950.289 525.423 950.063 525.274 949.889 525.078C949.709 524.881 949.585 524.644 949.523 524.387C949.461 524.13 949.467 523.862 949.534 523.607C950.514 520.122 951.954 516.782 953.812 513.676C956.046 509.795 959.862 506.507 964.268 506.112C964.826 506.078 965.377 506.216 965.85 506.507C966.278 506.771 966.638 507.131 966.902 507.559Z" fill="#CE9C5C"/>
<path d="M974.793 517.621C972.688 512.36 971.045 502.889 964.004 502.823C954.47 501.31 937.17 529.657 952.298 528.737C959.597 526.303 975.778 528.868 974.793 517.621ZM950.851 522.291C950.26 522.423 950.525 522.291 950.919 522.291H950.851ZM952.759 524.264C952.692 524.462 952.759 524.724 952.759 524.264V524.264ZM968.152 519.2H968.084L953.547 521.83C955.59 516.832 958.286 510.584 964.139 509.4C964.662 510.321 965.124 511.241 965.585 512.163C958.545 513.215 962.034 521.37 968.214 518.542C968.281 518.608 968.281 518.74 968.349 518.805C968.281 518.674 968.349 518.608 968.349 518.805C968.349 519.002 968.411 518.674 968.349 518.871C968.332 518.871 968.315 518.878 968.298 518.89C968.287 518.903 968.281 518.919 968.281 518.937H968.152V519.2ZM968.411 519.068C968.394 519.068 968.377 519.062 968.366 519.049C968.354 519.037 968.349 519.02 968.349 519.002H968.411V519.068Z" fill="#452D34"/>
<path d="M968.281 519.069C968.332 518.991 968.354 518.899 968.349 518.806C968.304 518.886 968.281 518.977 968.281 519.069Z" fill="#452D34"/>
<path d="M968.084 519.2C968.151 519.2 968.213 519.2 968.213 519.135L968.084 519.2Z" fill="#452D34"/>
<path d="M993.14 610.684L993.404 610.425L993.14 610.684Z" fill="#452D34"/>
<path d="M1008.34 612.856L1008.46 613.187C1008.4 613.053 1008.34 612.985 1008.34 612.856Z" fill="#452D34"/>
<path d="M1004.65 608.186L1004.91 608.45L1004.72 608.253L1004.65 608.186Z" fill="#452D34"/>
<path d="M1034.84 599.834L1035.17 600.098C1035.17 600.081 1035.16 600.064 1035.15 600.053C1035.14 600.036 1035.12 600.031 1035.1 600.031L1034.84 599.834Z" fill="#452D34"/>
<path d="M983.735 494.668C980.122 490.985 973.014 493.287 971.9 498.285C969.795 507.888 983.803 511.505 986.431 501.903C987.225 498.285 985.778 495.852 983.735 494.668Z" fill="#452D34"/>
<path d="M959.4 491.906C955.719 488.223 948.617 490.524 947.564 495.523C945.392 505.126 959.4 508.743 962.034 499.14C962.822 495.523 961.443 493.09 959.4 491.906Z" fill="#452D34"/>
<path d="M1026.23 538.405L1026.36 538.208L1026.23 538.405Z" fill="#452D34"/>
<path d="M1064.24 559.123H1064.18L1063.98 558.991C1064.04 558.991 1064.11 559.123 1064.24 559.123Z" fill="#452D34"/>
<path d="M1072.92 564.384L1072.79 564.187V564.057C1072.79 564.023 1072.79 563.984 1072.78 563.95C1072.76 563.916 1072.75 563.888 1072.73 563.86C1072.73 563.843 1072.73 563.826 1072.74 563.815C1072.75 563.798 1072.77 563.793 1072.79 563.793C1072.79 563.267 1072.73 563.464 1072.73 563.662C1073.78 552.678 1060.1 548.272 1050.62 551.428C1050.76 548.929 1051.35 545.378 1051.02 542.484C1058.26 539.524 1063.45 533.078 1061.68 523.871C1066.8 522.029 1067.4 514.071 1063.91 509.993C1060.43 505.916 1057.73 504.534 1053.58 503.614C1048.46 502.364 1040.04 501.903 1037.34 500.062C1021.56 473.82 987.157 454.417 957.43 469.019C939.933 478.358 930.923 494.406 928.491 512.23C927.951 512.373 927.456 512.644 927.045 513.019C920.004 519.925 914.089 528.606 911.523 538.209C909.351 544.325 914.545 551.297 920.201 550.902C921.603 553.464 923.82 555.484 926.505 556.64C929.184 557.796 932.178 558.022 935.003 557.282C939.804 568.728 946.906 579.05 955.72 586.811C966.109 596.874 978.147 602.665 990.05 604.438C986.173 607.86 983.674 612.857 985.779 617.332C987.945 619.566 991.367 617.658 991.435 614.833C991.497 612.002 991.958 612.593 993.207 610.685L993.078 610.82L993.207 610.685C993.343 610.555 993.54 610.358 993.472 610.488C993.973 609.858 994.547 609.283 995.183 608.783H996.1C997.085 610.713 997.704 612.807 997.946 614.962V614.636C998.076 617.331 997.682 621.406 1001.36 621.474C1007.41 620.354 1004 611.281 1002.41 606.875C1003.22 607.246 1003.99 607.685 1004.72 608.186C1004.65 608.186 1004.65 608.186 1004.65 608.124C1004.65 608.057 1004.72 608.186 1004.78 608.254L1004.98 608.451C1006.48 609.599 1007.66 611.118 1008.4 612.857C1008.34 612.79 1008.34 612.79 1008.34 612.728C1008.34 612.66 1008.4 612.79 1008.4 612.857C1008.4 612.981 1008.45 613.094 1008.53 613.189C1008.8 613.91 1009 614.658 1009.12 615.424C1009.12 617.264 1010.31 619.301 1012.42 619.172C1014.52 619.042 1015.83 617.725 1015.7 615.885C1015.51 611.675 1013.2 607.072 1009.85 603.914C1012.65 603.267 1015.4 602.412 1018.07 601.348C1017.53 605.181 1017.82 609.081 1018.92 612.79C1021.23 617.658 1027.34 614.895 1024.58 608.124C1024.33 606.357 1024.31 604.567 1024.52 602.794H1024.58L1025.3 603.976C1025.63 609.503 1032.67 610.229 1032.21 604.308C1031.7 601.95 1030.64 599.738 1029.12 597.864C1030.57 597.797 1031.09 597.994 1033 598.652L1034.91 599.772L1035.17 599.969H1035.24C1037.15 601.348 1038.06 605.226 1041.81 603.453C1046.48 599.114 1039.51 593.852 1032.94 591.876L1034.84 590.036L1035.17 589.709L1035.37 589.445L1036.35 588.454C1041.42 583.986 1054.97 584.577 1063.65 581.746C1070.88 580.102 1078.65 571.486 1072.92 564.384ZM1066.15 561.228C1066.15 561.163 1066.08 561.163 1066.08 561.097C1066.12 561.131 1066.14 561.178 1066.15 561.228ZM1055.1 529.922C1055.14 529.771 1055.16 529.617 1055.17 529.461C1055.23 529.527 1055.17 529.659 1055.1 529.922ZM1059.57 516.833C1059.57 516.72 1059.59 516.608 1059.63 516.505C1059.59 516.608 1059.57 516.72 1059.57 516.833ZM917.703 540.445C917.641 540.971 917.703 540.642 917.703 540.445V540.445ZM917.838 542.878C917.866 542.94 917.888 543.007 917.9 543.076C917.877 543.049 917.86 543.018 917.849 542.984C917.838 542.95 917.832 542.914 917.838 542.878ZM926.583 548.732C926.589 548.783 926.612 548.83 926.651 548.863C926.612 548.83 926.589 548.783 926.583 548.732ZM932.307 551.166H930.726C930.101 551.038 929.482 550.862 928.885 550.639C929.741 550.968 927.765 550.113 927.636 549.916C927.506 549.719 927.174 549.455 926.713 548.929C926.257 548.403 926.19 548.14 926.122 547.942C926.054 547.746 925.993 547.746 925.925 547.614C925.137 543.01 922.109 542.615 920.072 544.194H919.61L919.149 544.062L918.558 543.733L918.164 543.339L917.967 543.01C917.945 542.983 917.928 542.952 917.916 542.918C917.905 542.884 917.9 542.848 917.9 542.813C917.624 542.011 917.556 541.15 917.703 540.313C918.063 538.577 918.592 536.881 919.284 535.249C921.406 530.342 924.242 525.776 927.704 521.7C927.687 531.659 929.33 541.551 932.566 550.968L932.307 551.166ZM965.056 586.22C954.076 577.801 945.46 565.571 940.592 553.928C937.755 547.171 935.808 540.074 934.806 532.816C934.215 528.606 933.883 519.464 934.806 513.677C934.806 513.808 934.738 514.005 934.738 514.137C935.92 504.14 940.265 493.683 945.33 487.303C947.103 484.869 951.971 480.068 953.091 479.41C955.393 477.569 961.111 474.28 962.428 473.886C965.951 472.441 969.643 471.446 973.414 470.926C979.723 469.611 992.814 471.715 998.931 474.675C1010.57 479.739 1019.25 486.974 1027.21 496.971C1034.51 510.783 1042.27 507.231 1054.44 510.651C1055.35 511.066 1056.2 511.573 1057.01 512.164C1057.56 512.657 1058.09 513.184 1058.58 513.742H1058.52C1058.58 513.808 1058.58 513.874 1058.65 513.874C1058.72 513.874 1059.31 514.795 1059.31 515.124L1059.17 514.795C1059.35 515.144 1059.47 515.523 1059.51 515.913C1059.52 515.913 1059.54 515.919 1059.55 515.932C1059.56 515.944 1059.57 515.961 1059.57 515.978C1059.54 516.263 1059.54 516.55 1059.57 516.833C1059.52 517.034 1059.45 517.232 1059.38 517.425L1059.17 517.754H1059.11C1055.82 517.228 1053.78 521.108 1055.03 524.989C1055.24 526.515 1055.28 528.058 1055.17 529.593C1055.17 529.724 1055.1 529.79 1055.1 529.856L1054.83 530.711C1054.46 531.471 1054.02 532.197 1053.52 532.881L1053.32 533.078C1052.77 533.774 1052.13 534.393 1051.41 534.92C1050.61 535.549 1049.73 536.058 1048.78 536.433H1048.91C1048.05 536.721 1047.17 536.963 1046.28 537.156H1045.3C1040.5 537.485 1034.65 536.499 1032.8 535.183C1032.67 535.183 1032.14 534.525 1032.01 534.394C1029.71 531.303 1024.84 534.131 1026.36 537.683V537.814V537.946H1026.42C1026.36 537.946 1026.36 537.946 1026.36 538.011C1026.29 538.143 1026.29 538.209 1026.23 538.143C1026.16 538.077 1026.16 538.275 1026.16 538.34C1026.08 538.462 1025.97 538.554 1025.83 538.603L1025.5 538.866H1025.43C1024.97 539.059 1024.49 539.192 1023.99 539.261C1021.29 539.656 1015.63 537.683 1013.4 535.775C1012.21 534.803 1011.11 533.724 1010.11 532.552C1009.33 531.476 1008.65 530.331 1008.07 529.133C1007.28 527.028 1007.02 526.107 1007.22 524.068C1009.58 520.451 1004 515.584 1001.3 521.042C995.509 539.985 1026.42 552.941 1031.82 541.76C1035.69 543.638 1040.03 544.368 1044.31 543.865C1044.57 553.27 1042.73 563.267 1039.71 570.569C1037.96 574.565 1035.78 578.358 1033.19 581.881C1032.87 582.275 1032.54 582.736 1032.14 583.13C1031.38 583.772 1030.71 584.526 1030.17 585.365C1028.65 587.07 1026.95 588.612 1025.11 589.968C1021.16 593.52 1010.31 597.926 1005.44 598.191C996.562 599.57 986.37 597.403 979.593 594.51C974.86 592.861 967.758 588.392 965.056 586.22ZM1066.08 573.332C1060.29 577.407 1051.74 577.21 1044.18 578.724L1043.2 578.853C1046.55 572.741 1048.79 566.083 1049.84 559.189C1049.9 559.189 1049.9 559.189 1049.9 559.124C1053.45 556.427 1059.11 556.69 1062.13 557.874L1062.53 558.071L1063.98 558.926C1063.91 558.861 1063.98 558.861 1064.11 558.992H1064.24L1065.62 560.308C1065.81 560.56 1065.99 560.824 1066.15 561.097L1066.28 561.557V561.886V562.083C1065.62 564.187 1067.33 567.805 1067.92 568.329C1068.04 568.492 1068.13 568.672 1068.18 568.858C1068.18 568.987 1068.32 569.184 1068.32 569.252C1068.32 569.319 1068.39 569.516 1068.39 569.646C1068.39 569.781 1068.25 570.434 1068.18 570.501V570.698L1067.59 571.683C1067.15 572.291 1066.65 572.842 1066.08 573.332ZM1068.12 570.963C1068.19 570.833 1068.19 570.698 1068.25 570.698L1068.12 570.963Z" fill="#452D34"/>
<path d="M1003.51 587.603C1012.27 578.694 1009.39 561.665 997.09 549.572C984.782 537.478 967.707 534.9 958.95 543.812C950.192 552.725 953.068 569.751 965.371 581.846C977.679 593.94 994.755 596.518 1003.51 587.603Z" fill="#D13535"/>
<path d="M326.497 614.832C325.108 618.316 324.073 621.929 323.405 625.616C323.322 626.111 323.34 626.617 323.459 627.101C323.577 627.591 323.794 628.047 324.096 628.446C324.397 628.846 324.778 629.184 325.213 629.431C325.648 629.679 326.13 629.837 326.628 629.893L344.386 630.551C344.646 630.568 344.907 630.523 345.144 630.416C345.381 630.304 345.585 630.135 345.737 629.927C345.889 629.713 345.984 629.465 346.013 629.206C346.041 628.947 346.001 628.683 345.898 628.446C344.465 625.092 342.585 621.952 340.308 619.104C337.546 615.62 333.337 612.924 328.93 613.121C328.651 613.116 328.374 613.161 328.114 613.262C327.855 613.363 327.618 613.521 327.417 613.712C327.009 613.988 326.69 614.376 326.497 614.832Z" fill="#CE9C5C"/>
<path d="M326.628 626.206V626.34C326.694 626.34 326.628 626.273 326.628 626.206Z" fill="#452D34"/>
<path d="M348.398 625.947C345.57 620.224 341.755 614.303 335.836 611.343C331.824 609.435 325.05 608.517 323.34 613.977C318.209 626.341 318.078 634.761 334.126 633.444C339.848 633.708 352.805 635.943 348.398 625.947ZM326.628 626.206V626.077C326.637 626.077 326.645 626.077 326.653 626.082C326.661 626.082 326.668 626.088 326.674 626.094C326.681 626.105 326.686 626.111 326.689 626.116C326.692 626.127 326.694 626.133 326.694 626.144L326.628 626.206ZM326.628 626.206C326.628 626.223 326.621 626.24 326.609 626.257C326.596 626.268 326.58 626.274 326.562 626.274C326.497 626.144 326.562 626.144 326.628 626.206ZM327.023 626.606H326.957C326.957 626.606 326.694 626.538 326.628 626.341V626.144C326.673 626.06 326.695 625.97 326.694 625.88C328.601 626.206 330.706 625.88 331.89 624.957C333.073 624.039 332.416 619.239 329.587 619.301H328.404C328.733 618.316 329.062 617.331 329.456 616.278H330.311C335.77 617.134 339.125 622.593 341.689 627.062L327.023 626.606ZM344.32 627.259C344.386 627.326 344.452 627.259 344.32 627.259V627.259Z" fill="#452D34"/>
<path d="M309.528 603.058L308.739 603.779C307.915 604.257 307.251 604.966 306.831 605.822C303.279 611.343 309.857 618.642 315.776 616.34C325.773 612.53 318.867 597.464 309.528 603.058Z" fill="#452D34"/>
<path d="M333.337 597.009L332.547 597.729C331.71 598.191 331.042 598.905 330.64 599.767C327.088 605.293 333.665 612.593 339.585 610.291C349.582 606.475 342.676 591.415 333.337 597.009Z" fill="#452D34"/>
<path d="M381.217 629.695C379.112 626.864 371.089 615.946 365.63 614.5C351.489 564.45 285.587 553.861 256.254 616.543C255.955 616.88 255.625 617.184 255.267 617.46C248.23 621.602 234.681 621.473 230.406 631.142C227.841 635.616 230.012 642.848 234.879 644.03C234.418 653.502 240.601 659.158 248.23 660.998C248.624 664.026 249.019 666.919 249.611 669.682C239.614 667.774 226.394 675.141 229.354 684.81C229.42 684.878 229.42 684.94 229.354 685.075C229.374 685.187 229.35 685.305 229.288 685.401C225.21 691.125 230.67 699.28 237.838 700.923C247.243 703.883 261.187 700.991 267.764 703.951L270.197 706.056H270.263L272.236 707.564C267.632 709.472 263.686 713.288 263.554 718.088C264.146 720.722 268.356 721.375 269.605 718.876C270.855 716.377 270.789 716.513 272.565 714.869C273.287 714.391 274.033 713.952 274.801 713.552C274.784 713.552 274.767 713.558 274.755 713.569C274.742 713.58 274.735 713.597 274.735 713.614C274.735 713.597 274.742 713.58 274.755 713.569C274.767 713.558 274.784 713.552 274.801 713.552H274.867C275.262 713.417 275.064 713.552 274.867 713.614C275.72 713.293 276.601 713.051 277.498 712.894C275.327 715.787 274.078 719.602 276.051 722.495C278.024 725.388 282.101 722.366 281.707 719.208C281.839 718.814 281.904 718.42 282.035 718.021C282.214 717.751 282.368 717.464 282.496 717.171C282.693 717.959 282.891 718.814 283.022 719.67C283.23 721.482 283.208 723.317 282.957 725.129C281.839 728.022 287.363 731.641 289.336 726.705C289.947 722.799 289.723 718.809 288.679 714.999C291.509 715.657 294.392 716.051 297.295 716.181C294.322 719.574 292.768 723.975 292.954 728.483C293.085 730.189 294.401 731.838 296.242 731.77C299.333 731.702 299.728 728.68 299.596 726.243C299.745 725.326 299.988 724.42 300.32 723.548C300.749 722.63 301.255 721.752 301.832 720.919H301.898C302.489 720.193 303.149 719.535 303.871 718.944L304.858 718.285C303.832 722.124 303.652 726.142 304.332 730.059C305.581 734.466 312.159 732.096 310.646 727.887C310.503 726.975 310.46 726.052 310.514 725.129C310.492 724.268 310.537 723.412 310.646 722.563V722.428C310.832 721.386 311.073 720.356 311.369 719.338L312.487 719.073C314.311 720.115 315.761 721.702 316.631 723.615C317.025 725.849 318.604 728.219 321.169 727.431C321.994 727.183 322.694 726.632 323.122 725.883C323.551 725.135 323.676 724.251 323.471 723.418C322.441 719.45 319.951 716.023 316.5 713.817C337.546 707.502 357.145 689.02 364.775 660.475L364.972 659.884C370.825 660.739 376.679 656.991 378.718 651.464C380.611 651.267 382.39 650.463 383.782 649.162C389.57 643.506 385.032 635.087 381.217 629.695ZM236.654 637.783L236.523 637.653L236.654 637.783ZM235.865 636.336C235.931 636.404 235.931 636.466 235.931 636.601C235.941 636.505 235.918 636.415 235.865 636.336ZM236.918 644.097L237.904 643.968C237.757 644.052 237.594 644.114 237.424 644.137C237.255 644.159 237.082 644.142 236.918 644.097ZM234.747 691.322C234.643 691.068 234.576 690.804 234.549 690.534C234.549 690.337 234.484 690.202 234.484 690.005V689.875C234.547 689.752 234.592 689.616 234.615 689.481C235.799 687.438 236.457 684.94 235.536 682.705C235.471 682.638 235.471 682.441 235.471 682.373V681.917L235.668 681.388C235.799 681.191 236.194 680.403 236.326 680.274C236.457 680.139 236.326 680.206 236.391 680.139C236.806 679.593 237.293 679.109 237.838 678.693C237.773 678.693 237.773 678.625 237.97 678.563H238.101C238.525 678.276 238.964 678.012 239.417 677.77L240.272 677.314C243.487 675.918 247.117 675.822 250.4 677.049C250.781 677.415 251.227 677.708 251.716 677.905C253.654 684.405 256.654 690.534 260.595 696.055C250.006 695.07 238.299 697.372 234.747 691.322ZM272.433 714.999L272.565 714.869C272.499 714.931 272.499 714.999 272.433 714.999ZM332.153 698.689C330.508 700.265 321.301 705.656 319.393 706.185C311.567 709.669 302.03 710.721 295.453 709.804C292.428 709.539 286.048 707.564 284.798 706.973C281.904 705.921 276.379 702.437 275.262 701.446L274.735 701.053C274.188 700.501 273.594 699.994 272.959 699.544C270.803 697.574 268.802 695.441 266.974 693.162C260.068 684.084 256.714 674.815 255.004 663.368C254.902 662.782 254.858 662.186 254.873 661.595C259.154 661.482 263.321 660.182 266.909 657.841C270.263 661.46 277.629 661.657 282.101 658.831C284.989 657.492 287.581 655.595 289.727 653.248C291.873 650.902 293.528 648.144 294.598 645.15C299.728 630.022 286.311 627.326 288.415 636.072C288.601 636.274 288.716 636.528 288.744 636.798C288.884 637.136 288.994 637.49 289.073 637.85C289.402 643.174 286.968 647.255 282.496 651.003C281.346 651.853 280.112 652.579 278.813 653.175C277.671 653.654 276.48 654.008 275.262 654.228H273.354L272.565 653.963L272.236 653.766L271.973 653.569L271.776 653.305V653.108C271.776 653.04 271.842 653.04 271.842 652.978C272.959 648.966 266.909 647.187 265.462 651.003H265.33L264.87 651.464C264.87 651.532 264.738 651.594 264.673 651.661C262.765 653.108 258.49 654.228 254.807 654.886H254.281C253.12 654.948 251.956 654.948 250.795 654.886L248.493 654.357L247.77 654.093C245.731 653.372 243.757 651.335 243.231 650.676C242.705 650.018 242.64 649.753 242.31 649.292C242.097 648.577 241.921 647.857 241.784 647.125C241.784 642.521 241.85 636.404 236.457 637.456C236.422 637.456 236.389 637.439 236.364 637.417C236.339 637.394 236.326 637.361 236.326 637.321L236.194 637.062C236.176 637.062 236.16 637.051 236.147 637.04C236.135 637.029 236.128 637.012 236.128 636.995C236.059 636.702 235.972 636.421 235.865 636.139C235.855 635.875 235.877 635.61 235.931 635.351C236.009 634.907 236.119 634.462 236.26 634.034C236.128 634.164 236.194 634.164 236.26 634.034C236.326 633.905 236.326 633.905 236.326 633.838C236.326 633.77 236.918 632.853 237.049 632.718L237.181 632.521C237.753 631.783 238.416 631.119 239.154 630.551C239.022 630.613 238.956 630.613 238.956 630.68C239.486 630.326 240.036 629.994 240.601 629.695L241.39 629.363C266.382 622.199 257.701 622.458 271.512 603.385C275.151 598.725 279.348 594.526 284.009 590.89C286.442 588.915 292.888 584.773 297.229 583.129C306.502 578.723 322.156 578.194 331.364 582.538C334.7 584.052 337.873 585.904 340.834 588.06C343.947 590.541 346.771 593.367 349.253 596.479C355.961 604.898 359.842 616.605 361.026 625.75C362.933 640.811 360.828 654.29 355.04 668.303C350.503 679.086 342.478 690.793 332.153 698.689ZM271.71 653.04C271.644 652.978 271.71 652.978 271.71 653.04V653.04ZM271.71 653.372V653.44V653.372ZM271.644 653.175V653.04C271.648 653.091 271.672 653.141 271.71 653.175H271.644ZM288.744 636.668V636.533C288.759 636.578 288.759 636.623 288.744 636.668ZM379.836 643.574C379.705 643.9 379.77 643.636 379.836 643.439C379.741 643.647 379.63 643.844 379.507 644.03C379.375 644.165 379.244 644.362 379.112 644.424L378.455 644.756H378.06C374.969 642.583 372.404 646.27 372.798 647.778C372.746 648.414 372.591 649.039 372.338 649.624C371.87 650.553 371.222 651.38 370.431 652.055L369.247 652.781C368.696 652.995 368.122 653.153 367.537 653.237H366.484C368.499 643.596 368.877 633.68 367.603 623.904C373.325 629.166 378.455 636.01 379.967 641.599V642.78C379.902 642.915 379.902 643.242 379.836 643.377V643.574Z" fill="#452D34"/>
<path d="M378.061 644.824H378.126C378.126 644.841 378.133 644.857 378.145 644.869C378.158 644.88 378.174 644.886 378.192 644.886C378.209 644.886 378.226 644.88 378.238 644.869C378.251 644.857 378.257 644.841 378.257 644.824H378.061Z" fill="#452D34"/>
<path d="M238.101 678.366H238.036L237.838 678.563L238.101 678.366Z" fill="#452D34"/>
<path d="M338.069 689.025C348.62 675.378 349.159 658.117 339.272 650.474C329.386 642.831 312.818 647.705 302.266 661.358C291.715 675.006 291.176 692.267 301.063 699.91C310.95 707.553 327.518 702.679 338.069 689.025Z" fill="#D13535"/>
<path d="M492.5 243.754C499.932 267.103 517.23 283.151 538.934 284.729C562.545 286.439 584.053 269.339 593.919 243.754" fill="white"/>
<path d="M542.222 186.865C541.641 190.561 541.421 194.306 541.564 198.045C541.597 198.541 541.73 199.026 541.955 199.469C542.179 199.913 542.492 200.306 542.873 200.626C543.254 200.946 543.696 201.185 544.172 201.329C544.648 201.473 545.148 201.52 545.642 201.465L563.137 198.177C563.391 198.124 563.629 198.01 563.826 197.844C564.029 197.678 564.181 197.465 564.282 197.224C564.378 196.983 564.417 196.722 564.389 196.464C564.361 196.206 564.271 195.958 564.125 195.743C561.985 192.79 559.438 190.155 556.56 187.916C553.14 185.088 548.405 183.444 544.129 184.628C543.595 184.767 543.128 185.094 542.814 185.549C542.477 185.91 542.269 186.373 542.222 186.865Z" fill="#CE9C5C"/>
<path d="M528.937 168.316L528.411 168.711C526.7 169.303 525.319 170.75 524.793 173.249C523.741 178.182 528.542 183.246 533.541 182.194C544.261 179.76 539 163.515 528.937 168.316Z" fill="#452D34"/>
<path d="M553.469 167.593L552.943 167.987C551.298 168.579 549.851 170.026 549.325 172.526C548.273 177.458 553.074 182.523 558.073 181.47C568.796 179.037 563.534 162.792 553.469 167.593Z" fill="#452D34"/>
<path d="M630.816 201.992C636.079 192.192 621.148 185.746 612.993 190.35C608.98 191.995 605.232 194.296 601.286 196.072C600.887 193.968 600.363 191.797 599.772 189.693C581.684 124.777 507.496 128.724 488.949 191.139C488.422 192.849 487.962 194.625 487.568 196.401C482.503 194.165 474.216 188.18 467.244 188.903C460.273 189.627 453.63 196.204 457.379 202.057C444.883 213.698 456.261 231.654 470.73 234.35C470.599 239.086 475.137 244.15 480.004 245.334C483.096 246.564 486.413 247.124 489.738 246.978C496.052 264.999 508.088 278.351 522.952 284.533C519.005 287.493 516.112 292.097 517.164 296.7C518.414 299.134 522.623 298.673 523.149 295.911C523.28 295.187 523.544 294.53 523.741 293.806C525.319 290.781 526.108 289.992 529.332 288.414H529.463C528.456 290.896 528.226 293.625 528.805 296.24C530.187 300.712 536.632 298.081 535.054 293.872V292.491C535.119 292.162 535.251 291.834 535.316 291.504C535.641 292.031 535.926 292.581 536.171 293.149C536.539 294.16 536.846 295.192 537.093 296.24C537.229 296.76 537.339 297.287 537.421 297.818C536.895 302.751 543.604 304.264 544.13 299.068C543.854 295.377 542.848 291.778 541.17 288.479H542.222C544.534 288.468 546.842 288.291 549.128 287.953C547.311 291.77 546.937 296.115 548.076 300.186C548.602 301.831 550.444 303.08 552.154 302.488C553.864 301.896 554.85 299.003 554.061 296.832C553.962 295.958 553.962 295.075 554.061 294.201C554.061 294.07 554.127 293.872 554.127 293.806C554.785 290.978 555.376 289.465 557.152 287.756C557.087 290.518 557.679 294.07 559.257 298.411C560.835 302.751 566.821 300.712 565.571 296.7C564.192 293.74 563.793 289.597 563.928 287.032C564.299 286.935 564.654 286.779 564.98 286.572L566.23 287.032C567.344 287.492 569.978 289.268 570.895 291.57C572.938 295.253 578.724 291.899 576.557 288.216C574.869 284.901 572.043 282.308 568.593 280.915C570.372 279.863 572.083 278.679 573.794 277.43C583.592 269.998 591.421 259.475 596.615 246.847C600.15 247.324 603.751 246.987 607.139 245.86C612.402 244.808 617.793 239.481 617.658 234.482C631.998 231.654 643.575 213.501 630.816 201.992ZM629.37 211.068C629.37 210.936 629.302 210.87 629.302 210.804C629.302 210.739 629.37 210.936 629.37 211.068ZM625.29 198.045L625.16 197.848C625.194 197.868 625.222 197.897 625.25 197.931C625.273 197.965 625.284 198.004 625.29 198.045ZM463.561 197.124L463.43 197.322L463.561 197.124ZM459.155 203.899H459.286C459.681 204.228 459.483 204.162 459.155 203.899ZM458.958 200.742L458.76 200.873L458.958 200.742ZM528.608 288.676L529.134 288.479L528.608 288.676ZM611.017 234.416L611.152 234.548L611.017 234.416ZM610.753 234.087C610.792 234.121 610.815 234.168 610.82 234.219C610.815 234.168 610.792 234.121 610.753 234.087ZM629.696 215.277C629.505 216.281 629.241 217.27 628.909 218.237V218.368C627.13 222.84 621.474 225.866 617.596 227.707C616.848 227.996 616.077 228.216 615.294 228.365H614.107C610.359 226.59 607.201 231.982 610.82 234.153H610.95V234.284H611.017C611.017 234.377 611.04 234.467 611.085 234.548V234.942C611.085 235.008 611.017 235.074 611.017 235.14C610.972 235.22 610.95 235.311 610.95 235.403C610.359 236.85 607.466 238.428 606.414 238.889C603.532 240.034 600.42 240.463 597.336 240.138C595.822 239.938 594.341 239.54 592.929 238.954C591.769 238.47 590.661 237.852 589.642 237.113H589.71C589.13 236.642 588.584 236.136 588.066 235.6C587.807 235.251 587.588 234.876 587.408 234.482C587.34 234.482 587.273 234.35 587.273 234.284H587.211C586.749 229.615 579.512 230.601 580.632 235.271C581.752 239.941 585.432 242.901 589.575 244.742C579.647 268.025 559.652 282.494 539.197 280.981C520.19 279.6 504.602 266.381 496.972 245.465C498.055 245.051 499.109 244.567 500.13 244.018C514.27 235.995 504.536 225.668 501.116 234.219C500.835 234.773 500.505 235.302 500.13 235.797C498.762 237.199 497.13 238.317 495.329 239.086C494.359 239.51 493.344 239.819 492.303 240.007H491.579C487.107 240.598 481.78 239.546 478.952 237.244C478.547 236.905 478.173 236.531 477.833 236.126C477.656 235.878 477.502 235.614 477.373 235.337C477.307 235.206 477.307 235.074 477.241 234.942V234.548C477.28 234.514 477.303 234.467 477.307 234.416L477.505 234.021C480.925 232.509 478.491 226.326 474.413 228.234H473.164C472.352 228.072 471.559 227.83 470.796 227.51C467.968 226.195 463.298 223.761 460.93 220.67C460.347 219.9 459.862 219.06 459.483 218.171C459.446 218.137 459.422 218.09 459.418 218.039C459.129 217.293 458.909 216.523 458.76 215.737C458.694 215.606 458.694 215.211 458.629 215.145C458.497 213.173 458.432 212.186 459.023 210.607C459.615 209.029 463.43 206.201 464.811 203.175C465.535 201.465 464.088 199.032 462.969 198.374V198.506L463.167 197.979C463.268 197.811 463.355 197.635 463.43 197.453C464.153 196.73 464.088 196.598 465.14 196.138H465.206C467.244 195.48 467.639 195.48 469.875 195.612C470.988 195.833 472.07 196.186 473.098 196.664C503.813 213.633 485.726 196.598 507.299 169.632C511.574 163.582 521.965 155.032 528.871 152.466C532.569 150.896 536.463 149.834 540.447 149.31C544.075 148.909 547.736 148.909 551.365 149.31H551.43L555.179 150.033C557.488 150.587 559.753 151.313 561.954 152.204C565.684 153.825 569.196 155.901 572.409 158.386C576.022 161.289 579.292 164.599 582.146 168.251C586.62 173.973 591.286 183.247 593.39 191.271C595.101 197.585 595.034 207.319 604.506 201.926C609.177 199.821 613.584 196.927 617.726 195.809C618.846 195.552 620.005 195.486 621.148 195.612C621.817 195.725 622.481 195.902 623.117 196.138L624.17 196.73L624.305 196.862L624.828 197.453H624.896C624.958 197.619 625.048 197.774 625.16 197.914C625.16 197.979 625.222 198.045 625.222 198.111C625.239 198.251 625.284 198.386 625.357 198.506V198.637C620.557 201.992 625.819 206.727 627.856 208.766C628.419 209.454 628.908 210.204 629.302 211.002C629.37 211.134 629.37 211.199 629.432 211.199C629.494 211.6 629.584 211.995 629.696 212.383C629.758 213.347 629.758 214.313 629.696 215.277Z" fill="#452D34"/>
<path d="M589.642 237.31C589.248 236.916 589.512 237.244 589.642 237.31V237.31Z" fill="#452D34"/>
<path d="M567.547 195.413C563.466 186.863 545.971 173.578 539.197 185.482C536.698 199.228 537.487 208.37 554.061 203.24C558.796 201.728 568.796 202.846 567.547 195.413ZM545.05 198.242C545.116 198.242 545.116 198.242 545.116 198.307L545.05 198.242ZM545.314 198.176C545.247 198.195 545.177 198.2 545.109 198.188C545.04 198.177 544.976 198.15 544.919 198.11C544.919 197.847 544.853 197.847 544.853 197.979V197.584C551.167 197.518 552.483 190.481 546.037 190.612L545.116 190.876H545.05C545.116 189.823 545.248 188.771 545.379 187.718C545.577 187.653 546.826 187.456 545.905 187.653C546.366 187.39 548.01 187.653 548.47 187.653C553.14 188.574 556.626 192.191 559.783 195.545L545.314 198.176ZM561.296 197.452C561.361 197.518 561.361 197.584 561.427 197.584L561.296 197.452Z" fill="#452D34"/>
<path d="M570.907 243.579C572.173 226.372 561.918 211.594 548.007 210.573C534.096 209.551 521.795 222.672 520.531 239.88C519.267 257.088 529.52 271.865 543.431 272.887C557.342 273.908 569.64 260.787 570.907 243.579Z" fill="#D13535"/>
<path d="M920.201 372.27C910.797 372.335 909.48 362.404 908.365 355.235L902.974 362.076C895.016 372.007 879.426 361.089 885.938 350.237C871.272 352.539 865.745 329.651 888.96 328.533C881.661 324.849 873.376 319.72 878.307 310.38C884.227 301.107 892.911 306.368 899.946 310.841C897.971 302.882 896.001 292.754 906.587 290.32C917.179 287.887 919.216 298.936 920.336 307.091L925.795 300.318C934.344 289.729 950.39 302.685 941.976 313.274L937.169 319.325C955.652 312.748 962.034 333.4 947.564 338.464C957.892 346.093 947.3 362.207 936.185 355.762L928.818 351.487C931.119 360.431 932.436 371.284 920.201 372.27ZM909.879 346.554C910.493 346.56 911.084 346.78 911.551 347.176C912.018 347.572 912.333 348.12 912.44 348.724L915.142 362.799C916.323 369.376 926.583 367.469 925.266 360.892L922.57 346.882C922.48 346.391 922.531 345.884 922.722 345.421C922.908 344.958 923.229 344.559 923.634 344.269C924.039 343.979 924.523 343.811 925.019 343.785C925.52 343.758 926.015 343.875 926.454 344.12C929.15 345.107 939.668 353.262 942.764 351.749C947.103 350.763 947.891 344.449 944.013 342.345L939.015 339.451C936.911 338.332 937.502 334.978 939.803 334.649L945.983 333.465C952.562 332.282 950.654 321.956 944.075 323.337L931.187 325.77C928.885 326.296 927.107 323.402 928.621 321.561C930.134 319.72 940 309.525 939.015 306.237C938.683 301.83 932.504 300.054 929.87 303.606L920.86 314.787C920.544 315.169 920.134 315.455 919.661 315.611C919.194 315.768 918.687 315.789 918.209 315.672C917.725 315.555 917.291 315.306 916.943 314.951C916.599 314.597 916.363 314.152 916.256 313.669C914.613 309.328 915.536 293.74 907.578 295.451C899.62 297.16 906.064 310.906 906.126 315.51C905.208 326.494 887.846 303.08 882.848 313.011C876.731 322.351 907.381 326.494 896.856 332.348C894.222 333.334 880.743 334.057 879.426 337.215C876.793 340.832 880.282 346.093 884.621 345.173L891.791 343.791C894.093 343.265 895.866 346.225 894.29 348.001L890.806 352.342C886.596 357.471 894.751 364.115 898.894 358.787C900.211 357.735 907.904 345.962 909.879 346.554Z" fill="#D13535"/>
<path d="M739.926 120.305C739.228 120.305 738.558 120.027 738.069 119.534C737.573 119.041 737.298 118.371 737.298 117.673V55.3237C737.298 54.626 737.573 53.9568 738.069 53.4634C738.558 52.9701 739.228 52.6929 739.926 52.6929C740.624 52.6929 741.293 52.9701 741.789 53.4634C742.278 53.9568 742.56 54.626 742.56 55.3237V117.673C742.56 118.371 742.278 119.041 741.789 119.534C741.293 120.027 740.624 120.305 739.926 120.305Z" fill="#EFDCC4"/>
<path d="M717.633 115.898C717.014 115.894 716.412 115.685 715.923 115.306C715.405 114.85 715.084 114.207 715.033 113.519C714.988 112.829 715.208 112.149 715.658 111.623L760.187 58.4808C760.637 57.949 761.284 57.6186 761.982 57.5629C762.68 57.5078 763.366 57.7312 763.901 58.1848C764.43 58.6384 764.762 59.2845 764.818 59.9813C764.875 60.6786 764.65 61.3686 764.199 61.901L719.671 114.977C719.412 115.262 719.097 115.489 718.748 115.648C718.393 115.806 718.016 115.891 717.633 115.898Z" fill="#EFDCC4"/>
<path d="M764.396 113.859C764.047 113.858 763.71 113.787 763.395 113.652C763.074 113.516 762.792 113.318 762.55 113.07L713.553 64.0708C713.069 63.5789 712.799 62.9176 712.799 62.2293C712.799 61.5405 713.069 60.8792 713.553 60.3879C713.795 60.1408 714.077 59.945 714.397 59.811C714.713 59.6771 715.05 59.6084 715.393 59.6084C715.737 59.6084 716.08 59.6771 716.395 59.811C716.71 59.945 716.997 60.1408 717.234 60.3879L766.299 109.386C766.783 109.878 767.053 110.539 767.053 111.228C767.053 111.916 766.783 112.578 766.299 113.07C766.051 113.323 765.758 113.523 765.426 113.659C765.1 113.795 764.751 113.863 764.396 113.859Z" fill="#EFDCC4"/>
<path d="M771.038 89.1293H708.753C708.055 89.1293 707.385 88.8518 706.89 88.3588C706.4 87.8652 706.124 87.1961 706.124 86.4982C706.124 85.8009 706.4 85.1317 706.89 84.6381C707.385 84.1446 708.055 83.8677 708.753 83.8677H771.038C771.735 83.8677 772.405 84.1446 772.895 84.6381C773.39 85.1317 773.666 85.8009 773.666 86.4982C773.666 87.1961 773.39 87.8652 772.895 88.3588C772.405 88.8518 771.735 89.1293 771.038 89.1293Z" fill="#EFDCC4"/>
<path d="M245.402 316.563C244.705 316.563 244.035 316.285 243.542 315.792C243.048 315.299 242.771 314.629 242.771 313.931V251.647C242.771 250.949 243.048 250.28 243.542 249.787C244.035 249.294 244.705 249.016 245.402 249.016C245.745 249.016 246.083 249.085 246.399 249.218C246.715 249.351 247 249.546 247.239 249.791C247.479 250.036 247.666 250.326 247.791 250.645C247.916 250.964 247.976 251.305 247.967 251.647V313.931C247.976 314.274 247.916 314.615 247.791 314.933C247.666 315.252 247.479 315.543 247.239 315.788C247 316.033 246.715 316.228 246.399 316.361C246.083 316.494 245.745 316.563 245.402 316.563Z" fill="#CE9C5C"/>
<path d="M223.106 312.222C222.475 312.221 221.866 311.987 221.396 311.564C220.868 311.117 220.537 310.479 220.475 309.79C220.414 309.101 220.626 308.415 221.067 307.881L265.659 254.805C266.127 254.357 266.743 254.097 267.39 254.075C268.037 254.053 268.67 254.271 269.167 254.686C269.663 255.101 269.989 255.685 270.082 256.326C270.176 256.967 270.029 257.619 269.671 258.159L225.079 311.235C224.847 311.54 224.549 311.787 224.207 311.958C223.865 312.129 223.488 312.22 223.106 312.222Z" fill="#CE9C5C"/>
<path d="M269.868 310.183C269.525 310.182 269.184 310.111 268.867 309.975C268.551 309.84 268.265 309.642 268.027 309.394L219.028 260.395C218.779 260.15 218.582 259.858 218.447 259.536C218.313 259.215 218.244 258.87 218.244 258.521C218.244 258.172 218.313 257.826 218.447 257.505C218.582 257.183 218.779 256.891 219.028 256.646C219.52 256.164 220.181 255.894 220.87 255.894C221.558 255.894 222.22 256.164 222.711 256.646L271.71 305.711C271.957 305.95 272.153 306.236 272.287 306.553C272.421 306.869 272.489 307.209 272.489 307.552C272.489 307.896 272.421 308.236 272.287 308.552C272.153 308.868 271.957 309.155 271.71 309.394C271.474 309.645 271.189 309.845 270.872 309.981C270.555 310.117 270.213 310.185 269.868 310.183Z" fill="#CE9C5C"/>
<path d="M276.511 285.388H214.227C213.885 285.397 213.544 285.337 213.225 285.212C212.907 285.087 212.616 284.9 212.371 284.66C212.125 284.421 211.931 284.135 211.797 283.82C211.664 283.504 211.596 283.166 211.596 282.823C211.596 282.125 211.873 281.456 212.367 280.963C212.86 280.469 213.529 280.192 214.227 280.192H276.511C277.209 280.192 277.878 280.469 278.372 280.963C278.865 281.456 279.142 282.125 279.142 282.823C279.142 283.166 279.074 283.504 278.941 283.82C278.808 284.135 278.613 284.421 278.368 284.66C278.122 284.9 277.832 285.087 277.513 285.212C277.194 285.337 276.853 285.397 276.511 285.388Z" fill="#CE9C5C"/>
</svg>
